<?xml version="1.0" encoding="utf-8" standalone="no"?>
<!DOCTYPE svg PUBLIC "-//W3C//DTD SVG 1.1//EN"
  "http://www.w3.org/Graphics/SVG/1.1/DTD/svg11.dtd">
<svg xmlns:xlink="http://www.w3.org/1999/xlink" width="864pt" height="360pt" viewBox="0 0 864 360" xmlns="http://www.w3.org/2000/svg" version="1.1">
 <metadata>
  <rdf:RDF xmlns:dc="http://purl.org/dc/elements/1.1/" xmlns:cc="http://creativecommons.org/ns#" xmlns:rdf="http://www.w3.org/1999/02/22-rdf-syntax-ns#">
   <cc:Work>
    <dc:type rdf:resource="http://purl.org/dc/dcmitype/StillImage"/>
    <dc:date>2025-06-23T19:01:47.412690</dc:date>
    <dc:format>image/svg+xml</dc:format>
    <dc:creator>
     <cc:Agent>
      <dc:title>Matplotlib v3.8.4, https://matplotlib.org/</dc:title>
     </cc:Agent>
    </dc:creator>
   </cc:Work>
  </rdf:RDF>
 </metadata>
 <defs>
  <style type="text/css">*{stroke-linejoin: round; stroke-linecap: butt}</style>
 </defs>
 <g id="figure_1">
  <g id="patch_1">
   <path d="M 0 360 
L 864 360 
L 864 0 
L 0 0 
z
" style="fill: #ffffff"/>
  </g>
  <g id="axes_1">
   <g id="patch_2">
    <path d="M 69.77 318.04 
L 426.298323 318.04 
L 426.298323 26.88 
L 69.77 26.88 
z
" style="fill: #ffffff"/>
   </g>
   <g id="PolyCollection_1">
    <path d="M 93.881117 269.520565 
L 93.881117 304.805455 
L 101.786401 278.256524 
L 109.691686 271.331109 
L 117.59697 265.609901 
L 125.502254 257.553623 
L 133.407539 253.228295 
L 141.312823 250.089899 
L 149.218107 238.050429 
L 157.123392 220.129582 
L 165.028676 209.726204 
L 172.93396 207.760892 
L 180.839245 207.949139 
L 188.744529 183.943198 
L 196.649813 193.551848 
L 204.555098 181.508799 
L 212.460382 173.497779 
L 220.365666 163.001995 
L 228.270951 189.541482 
L 236.176235 140.572615 
L 244.081519 137.54073 
L 251.986804 137.397282 
L 259.892088 122.514555 
L 267.797372 130.455357 
L 275.702657 121.227011 
L 283.607941 115.559317 
L 291.513225 100.156191 
L 299.418509 83.377955 
L 307.323794 88.136205 
L 315.229078 83.343004 
L 323.134362 77.091093 
L 331.039647 86.516859 
L 338.944931 84.829574 
L 346.850215 77.796465 
L 354.7555 71.925184 
L 362.660784 64.868206 
L 370.566068 64.868206 
L 378.471353 69.569094 
L 378.471353 57.811228 
L 378.471353 57.811228 
L 370.566068 57.811228 
L 362.660784 64.868206 
L 354.7555 43.697272 
L 346.850215 70.003846 
L 338.944931 64.868206 
L 331.039647 52.20104 
L 323.134362 40.114545 
L 315.229078 46.634839 
L 307.323794 61.814701 
L 299.418509 66.000024 
L 291.513225 86.215012 
L 283.607941 95.113706 
L 275.702657 92.210556 
L 267.797372 100.026877 
L 259.892088 104.615506 
L 251.986804 113.717267 
L 244.081519 111.743544 
L 236.176235 107.246244 
L 228.270951 152.330508 
L 220.365666 137.906462 
L 212.460382 141.234788 
L 204.555098 155.876904 
L 196.649813 170.84254 
L 188.744529 154.002582 
L 180.839245 175.510315 
L 172.93396 173.254517 
L 165.028676 175.167032 
L 157.123392 177.725106 
L 149.218107 210.541751 
L 141.312823 224.36699 
L 133.407539 232.541321 
L 125.502254 235.305528 
L 117.59697 224.585763 
L 109.691686 243.386149 
L 101.786401 244.804804 
L 93.881117 269.520565 
z
" clip-path="url(#p7325d038f9)" style="fill: #0000ff; fill-opacity: 0.2; stroke: #0000ff; stroke-opacity: 0.2"/>
    <path d="M 410.09249 57.811228 
L 410.09249 57.811228 
L 410.09249 57.811228 
L 410.09249 57.811228 
z
" clip-path="url(#p7325d038f9)" style="fill: #0000ff; fill-opacity: 0.2; stroke: #0000ff; stroke-opacity: 0.2"/>
   </g>
   <g id="PolyCollection_2">
    <path d="M 93.881117 275.284705 
L 93.881117 304.805455 
L 101.786401 286.113914 
L 109.691686 283.6453 
L 117.59697 278.582901 
L 125.502254 268.753852 
L 133.407539 252.770542 
L 141.312823 248.51733 
L 149.218107 245.422476 
L 157.123392 232.987209 
L 165.028676 230.730528 
L 172.93396 211.825728 
L 180.839245 194.092994 
L 188.744529 196.313535 
L 196.649813 181.616538 
L 204.555098 197.43225 
L 212.460382 179.729722 
L 220.365666 185.636007 
L 228.270951 182.200637 
L 236.176235 189.001294 
L 244.081519 167.971048 
L 251.986804 156.614432 
L 259.892088 141.16822 
L 267.797372 126.978494 
L 275.702657 129.048942 
L 283.607941 118.855243 
L 291.513225 100.153096 
L 299.418509 104.93696 
L 307.323794 112.039331 
L 315.229078 102.511531 
L 323.134362 113.279951 
L 331.039647 88.429809 
L 346.850215 71.392382 
L 354.7555 81.776725 
L 362.660784 61.545781 
L 370.566068 168.676351 
L 370.566068 69.398786 
L 370.566068 69.398786 
L 362.660784 43.697272 
L 354.7555 71.158796 
L 346.850215 69.553686 
L 331.039647 68.409162 
L 323.134362 74.949603 
L 315.229078 84.699339 
L 307.323794 73.995125 
L 299.418509 81.269912 
L 291.513225 86.03914 
L 283.607941 87.571516 
L 275.702657 97.915536 
L 267.797372 106.743189 
L 259.892088 118.435048 
L 251.986804 131.339462 
L 244.081519 124.524372 
L 236.176235 142.958183 
L 228.270951 141.246446 
L 220.365666 152.017586 
L 212.460382 146.673358 
L 204.555098 154.879101 
L 196.649813 144.26625 
L 188.744529 146.96404 
L 180.839245 168.5737 
L 172.93396 175.274947 
L 165.028676 196.571357 
L 157.123392 203.150597 
L 149.218107 218.014468 
L 141.312823 218.877258 
L 133.407539 225.412024 
L 125.502254 245.741807 
L 117.59697 250.760765 
L 109.691686 258.613288 
L 101.786401 270.094096 
L 93.881117 275.284705 
z
" clip-path="url(#p7325d038f9)" style="fill: #ff0000; fill-opacity: 0.2; stroke: #ff0000; stroke-opacity: 0.2"/>
    <path d="M 394.281921 73.829157 
L 394.281921 87.196484 
L 394.281921 73.829157 
L 394.281921 73.829157 
z
" clip-path="url(#p7325d038f9)" style="fill: #ff0000; fill-opacity: 0.2; stroke: #ff0000; stroke-opacity: 0.2"/>
   </g>
   <g id="PolyCollection_3">
    <defs>
     <path id="mb72db224bb" d="M 346.850215 -244.273566 
L 346.850215 -243.268652 
L 346.850215 -244.273566 
L 346.850215 -244.273566 
z
" style="stroke: #008000; stroke-opacity: 0.2"/>
    </defs>
    <g clip-path="url(#p7325d038f9)">
     <use xlink:href="#mb72db224bb" x="0" y="360" style="fill: #008000; fill-opacity: 0.2; stroke: #008000; stroke-opacity: 0.2"/>
    </g>
   </g>
   <g id="matplotlib.axis_1">
    <g id="xtick_1">
     <g id="line2d_1">
      <defs>
       <path id="m7a0944c596" d="M 0 0 
L 0 3.5 
" style="stroke: #000000; stroke-width: 0.8"/>
      </defs>
      <g>
       <use xlink:href="#m7a0944c596" x="78.070549" y="318.04" style="stroke: #000000; stroke-width: 0.8"/>
      </g>
     </g>
     <g id="text_1">
      <!-- 20 -->
      <g transform="translate(71.708049 332.638438) scale(0.1 -0.1)">
       <defs>
        <path id="DejaVuSans-32" d="M 1228 531 
L 3431 531 
L 3431 0 
L 469 0 
L 469 531 
Q 828 903 1448 1529 
Q 2069 2156 2228 2338 
Q 2531 2678 2651 2914 
Q 2772 3150 2772 3378 
Q 2772 3750 2511 3984 
Q 2250 4219 1831 4219 
Q 1534 4219 1204 4116 
Q 875 4013 500 3803 
L 500 4441 
Q 881 4594 1212 4672 
Q 1544 4750 1819 4750 
Q 2544 4750 2975 4387 
Q 3406 4025 3406 3419 
Q 3406 3131 3298 2873 
Q 3191 2616 2906 2266 
Q 2828 2175 2409 1742 
Q 1991 1309 1228 531 
z
" transform="scale(0.015625)"/>
        <path id="DejaVuSans-30" d="M 2034 4250 
Q 1547 4250 1301 3770 
Q 1056 3291 1056 2328 
Q 1056 1369 1301 889 
Q 1547 409 2034 409 
Q 2525 409 2770 889 
Q 3016 1369 3016 2328 
Q 3016 3291 2770 3770 
Q 2525 4250 2034 4250 
z
M 2034 4750 
Q 2819 4750 3233 4129 
Q 3647 3509 3647 2328 
Q 3647 1150 3233 529 
Q 2819 -91 2034 -91 
Q 1250 -91 836 529 
Q 422 1150 422 2328 
Q 422 3509 836 4129 
Q 1250 4750 2034 4750 
z
" transform="scale(0.015625)"/>
       </defs>
       <use xlink:href="#DejaVuSans-32"/>
       <use xlink:href="#DejaVuSans-30" x="63.623047"/>
      </g>
     </g>
    </g>
    <g id="xtick_2">
     <g id="line2d_2">
      <g>
       <use xlink:href="#m7a0944c596" x="157.123392" y="318.04" style="stroke: #000000; stroke-width: 0.8"/>
      </g>
     </g>
     <g id="text_2">
      <!-- 30 -->
      <g transform="translate(150.760892 332.638438) scale(0.1 -0.1)">
       <defs>
        <path id="DejaVuSans-33" d="M 2597 2516 
Q 3050 2419 3304 2112 
Q 3559 1806 3559 1356 
Q 3559 666 3084 287 
Q 2609 -91 1734 -91 
Q 1441 -91 1130 -33 
Q 819 25 488 141 
L 488 750 
Q 750 597 1062 519 
Q 1375 441 1716 441 
Q 2309 441 2620 675 
Q 2931 909 2931 1356 
Q 2931 1769 2642 2001 
Q 2353 2234 1838 2234 
L 1294 2234 
L 1294 2753 
L 1863 2753 
Q 2328 2753 2575 2939 
Q 2822 3125 2822 3475 
Q 2822 3834 2567 4026 
Q 2313 4219 1838 4219 
Q 1578 4219 1281 4162 
Q 984 4106 628 3988 
L 628 4550 
Q 988 4650 1302 4700 
Q 1616 4750 1894 4750 
Q 2613 4750 3031 4423 
Q 3450 4097 3450 3541 
Q 3450 3153 3228 2886 
Q 3006 2619 2597 2516 
z
" transform="scale(0.015625)"/>
       </defs>
       <use xlink:href="#DejaVuSans-33"/>
       <use xlink:href="#DejaVuSans-30" x="63.623047"/>
      </g>
     </g>
    </g>
    <g id="xtick_3">
     <g id="line2d_3">
      <g>
       <use xlink:href="#m7a0944c596" x="236.176235" y="318.04" style="stroke: #000000; stroke-width: 0.8"/>
      </g>
     </g>
     <g id="text_3">
      <!-- 40 -->
      <g transform="translate(229.813735 332.638438) scale(0.1 -0.1)">
       <defs>
        <path id="DejaVuSans-34" d="M 2419 4116 
L 825 1625 
L 2419 1625 
L 2419 4116 
z
M 2253 4666 
L 3047 4666 
L 3047 1625 
L 3713 1625 
L 3713 1100 
L 3047 1100 
L 3047 0 
L 2419 0 
L 2419 1100 
L 313 1100 
L 313 1709 
L 2253 4666 
z
" transform="scale(0.015625)"/>
       </defs>
       <use xlink:href="#DejaVuSans-34"/>
       <use xlink:href="#DejaVuSans-30" x="63.623047"/>
      </g>
     </g>
    </g>
    <g id="xtick_4">
     <g id="line2d_4">
      <g>
       <use xlink:href="#m7a0944c596" x="315.229078" y="318.04" style="stroke: #000000; stroke-width: 0.8"/>
      </g>
     </g>
     <g id="text_4">
      <!-- 50 -->
      <g transform="translate(308.866578 332.638438) scale(0.1 -0.1)">
       <defs>
        <path id="DejaVuSans-35" d="M 691 4666 
L 3169 4666 
L 3169 4134 
L 1269 4134 
L 1269 2991 
Q 1406 3038 1543 3061 
Q 1681 3084 1819 3084 
Q 2600 3084 3056 2656 
Q 3513 2228 3513 1497 
Q 3513 744 3044 326 
Q 2575 -91 1722 -91 
Q 1428 -91 1123 -41 
Q 819 9 494 109 
L 494 744 
Q 775 591 1075 516 
Q 1375 441 1709 441 
Q 2250 441 2565 725 
Q 2881 1009 2881 1497 
Q 2881 1984 2565 2268 
Q 2250 2553 1709 2553 
Q 1456 2553 1204 2497 
Q 953 2441 691 2322 
L 691 4666 
z
" transform="scale(0.015625)"/>
       </defs>
       <use xlink:href="#DejaVuSans-35"/>
       <use xlink:href="#DejaVuSans-30" x="63.623047"/>
      </g>
     </g>
    </g>
    <g id="xtick_5">
     <g id="line2d_5">
      <g>
       <use xlink:href="#m7a0944c596" x="394.281921" y="318.04" style="stroke: #000000; stroke-width: 0.8"/>
      </g>
     </g>
     <g id="text_5">
      <!-- 60 -->
      <g transform="translate(387.919421 332.638438) scale(0.1 -0.1)">
       <defs>
        <path id="DejaVuSans-36" d="M 2113 2584 
Q 1688 2584 1439 2293 
Q 1191 2003 1191 1497 
Q 1191 994 1439 701 
Q 1688 409 2113 409 
Q 2538 409 2786 701 
Q 3034 994 3034 1497 
Q 3034 2003 2786 2293 
Q 2538 2584 2113 2584 
z
M 3366 4563 
L 3366 3988 
Q 3128 4100 2886 4159 
Q 2644 4219 2406 4219 
Q 1781 4219 1451 3797 
Q 1122 3375 1075 2522 
Q 1259 2794 1537 2939 
Q 1816 3084 2150 3084 
Q 2853 3084 3261 2657 
Q 3669 2231 3669 1497 
Q 3669 778 3244 343 
Q 2819 -91 2113 -91 
Q 1303 -91 875 529 
Q 447 1150 447 2328 
Q 447 3434 972 4092 
Q 1497 4750 2381 4750 
Q 2619 4750 2861 4703 
Q 3103 4656 3366 4563 
z
" transform="scale(0.015625)"/>
       </defs>
       <use xlink:href="#DejaVuSans-36"/>
       <use xlink:href="#DejaVuSans-30" x="63.623047"/>
      </g>
     </g>
    </g>
    <g id="text_6">
     <!-- Age -->
     <g transform="translate(238.363068 346.316563) scale(0.1 -0.1)">
      <defs>
       <path id="DejaVuSans-41" d="M 2188 4044 
L 1331 1722 
L 3047 1722 
L 2188 4044 
z
M 1831 4666 
L 2547 4666 
L 4325 0 
L 3669 0 
L 3244 1197 
L 1141 1197 
L 716 0 
L 50 0 
L 1831 4666 
z
" transform="scale(0.015625)"/>
       <path id="DejaVuSans-67" d="M 2906 1791 
Q 2906 2416 2648 2759 
Q 2391 3103 1925 3103 
Q 1463 3103 1205 2759 
Q 947 2416 947 1791 
Q 947 1169 1205 825 
Q 1463 481 1925 481 
Q 2391 481 2648 825 
Q 2906 1169 2906 1791 
z
M 3481 434 
Q 3481 -459 3084 -895 
Q 2688 -1331 1869 -1331 
Q 1566 -1331 1297 -1286 
Q 1028 -1241 775 -1147 
L 775 -588 
Q 1028 -725 1275 -790 
Q 1522 -856 1778 -856 
Q 2344 -856 2625 -561 
Q 2906 -266 2906 331 
L 2906 616 
Q 2728 306 2450 153 
Q 2172 0 1784 0 
Q 1141 0 747 490 
Q 353 981 353 1791 
Q 353 2603 747 3093 
Q 1141 3584 1784 3584 
Q 2172 3584 2450 3431 
Q 2728 3278 2906 2969 
L 2906 3500 
L 3481 3500 
L 3481 434 
z
" transform="scale(0.015625)"/>
       <path id="DejaVuSans-65" d="M 3597 1894 
L 3597 1613 
L 953 1613 
Q 991 1019 1311 708 
Q 1631 397 2203 397 
Q 2534 397 2845 478 
Q 3156 559 3463 722 
L 3463 178 
Q 3153 47 2828 -22 
Q 2503 -91 2169 -91 
Q 1331 -91 842 396 
Q 353 884 353 1716 
Q 353 2575 817 3079 
Q 1281 3584 2069 3584 
Q 2775 3584 3186 3129 
Q 3597 2675 3597 1894 
z
M 3022 2063 
Q 3016 2534 2758 2815 
Q 2500 3097 2075 3097 
Q 1594 3097 1305 2825 
Q 1016 2553 972 2059 
L 3022 2063 
z
" transform="scale(0.015625)"/>
      </defs>
      <use xlink:href="#DejaVuSans-41"/>
      <use xlink:href="#DejaVuSans-67" x="68.408203"/>
      <use xlink:href="#DejaVuSans-65" x="131.884766"/>
     </g>
    </g>
   </g>
   <g id="matplotlib.axis_2">
    <g id="ytick_1">
     <g id="line2d_6">
      <defs>
       <path id="m2b57c82886" d="M 0 0 
L -3.5 0 
" style="stroke: #000000; stroke-width: 0.8"/>
      </defs>
      <g>
       <use xlink:href="#m2b57c82886" x="69.77" y="304.805455" style="stroke: #000000; stroke-width: 0.8"/>
      </g>
     </g>
     <g id="text_7">
      <!-- 25000 -->
      <g transform="translate(30.9575 308.604673) scale(0.1 -0.1)">
       <use xlink:href="#DejaVuSans-32"/>
       <use xlink:href="#DejaVuSans-35" x="63.623047"/>
       <use xlink:href="#DejaVuSans-30" x="127.246094"/>
       <use xlink:href="#DejaVuSans-30" x="190.869141"/>
       <use xlink:href="#DejaVuSans-30" x="254.492188"/>
      </g>
     </g>
    </g>
    <g id="ytick_2">
     <g id="line2d_7">
      <g>
       <use xlink:href="#m2b57c82886" x="69.77" y="269.520565" style="stroke: #000000; stroke-width: 0.8"/>
      </g>
     </g>
     <g id="text_8">
      <!-- 50000 -->
      <g transform="translate(30.9575 273.319784) scale(0.1 -0.1)">
       <use xlink:href="#DejaVuSans-35"/>
       <use xlink:href="#DejaVuSans-30" x="63.623047"/>
       <use xlink:href="#DejaVuSans-30" x="127.246094"/>
       <use xlink:href="#DejaVuSans-30" x="190.869141"/>
       <use xlink:href="#DejaVuSans-30" x="254.492188"/>
      </g>
     </g>
    </g>
    <g id="ytick_3">
     <g id="line2d_8">
      <g>
       <use xlink:href="#m2b57c82886" x="69.77" y="234.235676" style="stroke: #000000; stroke-width: 0.8"/>
      </g>
     </g>
     <g id="text_9">
      <!-- 75000 -->
      <g transform="translate(30.9575 238.034894) scale(0.1 -0.1)">
       <defs>
        <path id="DejaVuSans-37" d="M 525 4666 
L 3525 4666 
L 3525 4397 
L 1831 0 
L 1172 0 
L 2766 4134 
L 525 4134 
L 525 4666 
z
" transform="scale(0.015625)"/>
       </defs>
       <use xlink:href="#DejaVuSans-37"/>
       <use xlink:href="#DejaVuSans-35" x="63.623047"/>
       <use xlink:href="#DejaVuSans-30" x="127.246094"/>
       <use xlink:href="#DejaVuSans-30" x="190.869141"/>
       <use xlink:href="#DejaVuSans-30" x="254.492188"/>
      </g>
     </g>
    </g>
    <g id="ytick_4">
     <g id="line2d_9">
      <g>
       <use xlink:href="#m2b57c82886" x="69.77" y="198.950786" style="stroke: #000000; stroke-width: 0.8"/>
      </g>
     </g>
     <g id="text_10">
      <!-- 100000 -->
      <g transform="translate(24.595 202.750005) scale(0.1 -0.1)">
       <defs>
        <path id="DejaVuSans-31" d="M 794 531 
L 1825 531 
L 1825 4091 
L 703 3866 
L 703 4441 
L 1819 4666 
L 2450 4666 
L 2450 531 
L 3481 531 
L 3481 0 
L 794 0 
L 794 531 
z
" transform="scale(0.015625)"/>
       </defs>
       <use xlink:href="#DejaVuSans-31"/>
       <use xlink:href="#DejaVuSans-30" x="63.623047"/>
       <use xlink:href="#DejaVuSans-30" x="127.246094"/>
       <use xlink:href="#DejaVuSans-30" x="190.869141"/>
       <use xlink:href="#DejaVuSans-30" x="254.492188"/>
       <use xlink:href="#DejaVuSans-30" x="318.115234"/>
      </g>
     </g>
    </g>
    <g id="ytick_5">
     <g id="line2d_10">
      <g>
       <use xlink:href="#m2b57c82886" x="69.77" y="163.665897" style="stroke: #000000; stroke-width: 0.8"/>
      </g>
     </g>
     <g id="text_11">
      <!-- 125000 -->
      <g transform="translate(24.595 167.465115) scale(0.1 -0.1)">
       <use xlink:href="#DejaVuSans-31"/>
       <use xlink:href="#DejaVuSans-32" x="63.623047"/>
       <use xlink:href="#DejaVuSans-35" x="127.246094"/>
       <use xlink:href="#DejaVuSans-30" x="190.869141"/>
       <use xlink:href="#DejaVuSans-30" x="254.492188"/>
       <use xlink:href="#DejaVuSans-30" x="318.115234"/>
      </g>
     </g>
    </g>
    <g id="ytick_6">
     <g id="line2d_11">
      <g>
       <use xlink:href="#m2b57c82886" x="69.77" y="128.381007" style="stroke: #000000; stroke-width: 0.8"/>
      </g>
     </g>
     <g id="text_12">
      <!-- 150000 -->
      <g transform="translate(24.595 132.180226) scale(0.1 -0.1)">
       <use xlink:href="#DejaVuSans-31"/>
       <use xlink:href="#DejaVuSans-35" x="63.623047"/>
       <use xlink:href="#DejaVuSans-30" x="127.246094"/>
       <use xlink:href="#DejaVuSans-30" x="190.869141"/>
       <use xlink:href="#DejaVuSans-30" x="254.492188"/>
       <use xlink:href="#DejaVuSans-30" x="318.115234"/>
      </g>
     </g>
    </g>
    <g id="ytick_7">
     <g id="line2d_12">
      <g>
       <use xlink:href="#m2b57c82886" x="69.77" y="93.096118" style="stroke: #000000; stroke-width: 0.8"/>
      </g>
     </g>
     <g id="text_13">
      <!-- 175000 -->
      <g transform="translate(24.595 96.895336) scale(0.1 -0.1)">
       <use xlink:href="#DejaVuSans-31"/>
       <use xlink:href="#DejaVuSans-37" x="63.623047"/>
       <use xlink:href="#DejaVuSans-35" x="127.246094"/>
       <use xlink:href="#DejaVuSans-30" x="190.869141"/>
       <use xlink:href="#DejaVuSans-30" x="254.492188"/>
       <use xlink:href="#DejaVuSans-30" x="318.115234"/>
      </g>
     </g>
    </g>
    <g id="ytick_8">
     <g id="line2d_13">
      <g>
       <use xlink:href="#m2b57c82886" x="69.77" y="57.811228" style="stroke: #000000; stroke-width: 0.8"/>
      </g>
     </g>
     <g id="text_14">
      <!-- 200000 -->
      <g transform="translate(24.595 61.610447) scale(0.1 -0.1)">
       <use xlink:href="#DejaVuSans-32"/>
       <use xlink:href="#DejaVuSans-30" x="63.623047"/>
       <use xlink:href="#DejaVuSans-30" x="127.246094"/>
       <use xlink:href="#DejaVuSans-30" x="190.869141"/>
       <use xlink:href="#DejaVuSans-30" x="254.492188"/>
       <use xlink:href="#DejaVuSans-30" x="318.115234"/>
      </g>
     </g>
    </g>
    <g id="text_15">
     <!-- Salary -->
     <g transform="translate(18.515313 188.16625) rotate(-90) scale(0.1 -0.1)">
      <defs>
       <path id="DejaVuSans-53" d="M 3425 4513 
L 3425 3897 
Q 3066 4069 2747 4153 
Q 2428 4238 2131 4238 
Q 1616 4238 1336 4038 
Q 1056 3838 1056 3469 
Q 1056 3159 1242 3001 
Q 1428 2844 1947 2747 
L 2328 2669 
Q 3034 2534 3370 2195 
Q 3706 1856 3706 1288 
Q 3706 609 3251 259 
Q 2797 -91 1919 -91 
Q 1588 -91 1214 -16 
Q 841 59 441 206 
L 441 856 
Q 825 641 1194 531 
Q 1563 422 1919 422 
Q 2459 422 2753 634 
Q 3047 847 3047 1241 
Q 3047 1584 2836 1778 
Q 2625 1972 2144 2069 
L 1759 2144 
Q 1053 2284 737 2584 
Q 422 2884 422 3419 
Q 422 4038 858 4394 
Q 1294 4750 2059 4750 
Q 2388 4750 2728 4690 
Q 3069 4631 3425 4513 
z
" transform="scale(0.015625)"/>
       <path id="DejaVuSans-61" d="M 2194 1759 
Q 1497 1759 1228 1600 
Q 959 1441 959 1056 
Q 959 750 1161 570 
Q 1363 391 1709 391 
Q 2188 391 2477 730 
Q 2766 1069 2766 1631 
L 2766 1759 
L 2194 1759 
z
M 3341 1997 
L 3341 0 
L 2766 0 
L 2766 531 
Q 2569 213 2275 61 
Q 1981 -91 1556 -91 
Q 1019 -91 701 211 
Q 384 513 384 1019 
Q 384 1609 779 1909 
Q 1175 2209 1959 2209 
L 2766 2209 
L 2766 2266 
Q 2766 2663 2505 2880 
Q 2244 3097 1772 3097 
Q 1472 3097 1187 3025 
Q 903 2953 641 2809 
L 641 3341 
Q 956 3463 1253 3523 
Q 1550 3584 1831 3584 
Q 2591 3584 2966 3190 
Q 3341 2797 3341 1997 
z
" transform="scale(0.015625)"/>
       <path id="DejaVuSans-6c" d="M 603 4863 
L 1178 4863 
L 1178 0 
L 603 0 
L 603 4863 
z
" transform="scale(0.015625)"/>
       <path id="DejaVuSans-72" d="M 2631 2963 
Q 2534 3019 2420 3045 
Q 2306 3072 2169 3072 
Q 1681 3072 1420 2755 
Q 1159 2438 1159 1844 
L 1159 0 
L 581 0 
L 581 3500 
L 1159 3500 
L 1159 2956 
Q 1341 3275 1631 3429 
Q 1922 3584 2338 3584 
Q 2397 3584 2469 3576 
Q 2541 3569 2628 3553 
L 2631 2963 
z
" transform="scale(0.015625)"/>
       <path id="DejaVuSans-79" d="M 2059 -325 
Q 1816 -950 1584 -1140 
Q 1353 -1331 966 -1331 
L 506 -1331 
L 506 -850 
L 844 -850 
Q 1081 -850 1212 -737 
Q 1344 -625 1503 -206 
L 1606 56 
L 191 3500 
L 800 3500 
L 1894 763 
L 2988 3500 
L 3597 3500 
L 2059 -325 
z
" transform="scale(0.015625)"/>
      </defs>
      <use xlink:href="#DejaVuSans-53"/>
      <use xlink:href="#DejaVuSans-61" x="63.476562"/>
      <use xlink:href="#DejaVuSans-6c" x="124.755859"/>
      <use xlink:href="#DejaVuSans-61" x="152.539062"/>
      <use xlink:href="#DejaVuSans-72" x="213.818359"/>
      <use xlink:href="#DejaVuSans-79" x="254.931641"/>
     </g>
    </g>
   </g>
   <g id="line2d_14">
    <path d="M 93.881117 281.282195 
L 101.786401 262.751438 
L 109.691686 258.366672 
L 117.59697 246.427528 
L 125.502254 246.908371 
L 133.407539 243.393437 
L 141.312823 237.211502 
L 149.218107 225.053964 
L 157.123392 199.659228 
L 165.028676 191.35912 
L 172.93396 190.429689 
L 180.839245 191.628142 
L 188.744529 169.322977 
L 196.649813 182.180916 
L 204.555098 168.332263 
L 212.460382 158.221942 
L 220.365666 150.522181 
L 228.270951 173.150475 
L 236.176235 126.543213 
L 244.081519 124.250612 
L 251.986804 125.191071 
L 259.892088 113.203957 
L 267.797372 115.41875 
L 275.702657 107.352051 
L 283.607941 105.633002 
L 291.513225 92.947246 
L 299.418509 75.139324 
L 307.323794 76.179347 
L 315.229078 65.752916 
L 323.134362 62.293619 
L 331.039647 70.561904 
L 338.944931 74.84889 
L 346.850215 73.891728 
L 354.7555 60.650956 
L 362.660784 64.868206 
L 370.566068 62.51588 
L 378.471353 64.866324 
L 394.281921 64.868206 
L 402.187206 57.811228 
L 410.09249 57.811228 
" clip-path="url(#p7325d038f9)" style="fill: none; stroke: #0000ff; stroke-width: 1.5; stroke-linecap: square"/>
   </g>
   <g id="line2d_15">
    <path d="M 85.975833 304.805455 
L 93.881117 290.04508 
L 101.786401 278.162742 
L 109.691686 272.407504 
L 117.59697 266.109692 
L 125.502254 258.137483 
L 133.407539 239.634744 
L 141.312823 234.397604 
L 149.218107 232.16169 
L 157.123392 217.40496 
L 165.028676 213.33228 
L 172.93396 194.084422 
L 180.839245 181.577893 
L 188.744529 172.376383 
L 196.649813 162.541058 
L 204.555098 177.124662 
L 212.460382 163.121845 
L 220.365666 168.400312 
L 228.270951 161.996167 
L 236.176235 167.360258 
L 244.081519 146.461858 
L 251.986804 144.256272 
L 259.892088 129.841488 
L 267.797372 117.34986 
L 275.702657 112.774814 
L 283.607941 104.029548 
L 291.513225 93.096118 
L 299.418509 91.758628 
L 307.323794 93.323352 
L 315.229078 92.854231 
L 323.134362 91.500636 
L 331.039647 77.355999 
L 346.850215 70.303843 
L 354.7555 78.181901 
L 362.660784 52.621527 
L 370.566068 104.165223 
L 378.471353 64.868206 
L 394.281921 80.51282 
" clip-path="url(#p7325d038f9)" style="fill: none; stroke: #ff0000; stroke-width: 1.5; stroke-linecap: square"/>
   </g>
   <g id="line2d_16">
    <path d="M 101.786401 251.381309 
L 117.59697 242.658884 
L 165.028676 193.125957 
L 212.460382 112.300977 
L 338.944931 105.644836 
L 346.850215 116.228891 
" clip-path="url(#p7325d038f9)" style="fill: none; stroke: #008000; stroke-width: 1.5; stroke-linecap: square"/>
   </g>
   <g id="line2d_17"/>
   <g id="line2d_18"/>
   <g id="line2d_19"/>
   <g id="patch_3">
    <path d="M 69.77 318.04 
L 69.77 26.88 
" style="fill: none; stroke: #000000; stroke-width: 0.8; stroke-linejoin: miter; stroke-linecap: square"/>
   </g>
   <g id="patch_4">
    <path d="M 426.298323 318.04 
L 426.298323 26.88 
" style="fill: none; stroke: #000000; stroke-width: 0.8; stroke-linejoin: miter; stroke-linecap: square"/>
   </g>
   <g id="patch_5">
    <path d="M 69.77 318.04 
L 426.298323 318.04 
" style="fill: none; stroke: #000000; stroke-width: 0.8; stroke-linejoin: miter; stroke-linecap: square"/>
   </g>
   <g id="patch_6">
    <path d="M 69.77 26.88 
L 426.298323 26.88 
" style="fill: none; stroke: #000000; stroke-width: 0.8; stroke-linejoin: miter; stroke-linecap: square"/>
   </g>
   <g id="text_16">
    <!-- Age vs. Salary -->
    <g transform="translate(205.183849 20.88) scale(0.12 -0.12)">
     <defs>
      <path id="DejaVuSans-20" transform="scale(0.015625)"/>
      <path id="DejaVuSans-76" d="M 191 3500 
L 800 3500 
L 1894 563 
L 2988 3500 
L 3597 3500 
L 2284 0 
L 1503 0 
L 191 3500 
z
" transform="scale(0.015625)"/>
      <path id="DejaVuSans-73" d="M 2834 3397 
L 2834 2853 
Q 2591 2978 2328 3040 
Q 2066 3103 1784 3103 
Q 1356 3103 1142 2972 
Q 928 2841 928 2578 
Q 928 2378 1081 2264 
Q 1234 2150 1697 2047 
L 1894 2003 
Q 2506 1872 2764 1633 
Q 3022 1394 3022 966 
Q 3022 478 2636 193 
Q 2250 -91 1575 -91 
Q 1294 -91 989 -36 
Q 684 19 347 128 
L 347 722 
Q 666 556 975 473 
Q 1284 391 1588 391 
Q 1994 391 2212 530 
Q 2431 669 2431 922 
Q 2431 1156 2273 1281 
Q 2116 1406 1581 1522 
L 1381 1569 
Q 847 1681 609 1914 
Q 372 2147 372 2553 
Q 372 3047 722 3315 
Q 1072 3584 1716 3584 
Q 2034 3584 2315 3537 
Q 2597 3491 2834 3397 
z
" transform="scale(0.015625)"/>
      <path id="DejaVuSans-2e" d="M 684 794 
L 1344 794 
L 1344 0 
L 684 0 
L 684 794 
z
" transform="scale(0.015625)"/>
     </defs>
     <use xlink:href="#DejaVuSans-41"/>
     <use xlink:href="#DejaVuSans-67" x="68.408203"/>
     <use xlink:href="#DejaVuSans-65" x="131.884766"/>
     <use xlink:href="#DejaVuSans-20" x="193.408203"/>
     <use xlink:href="#DejaVuSans-76" x="225.195312"/>
     <use xlink:href="#DejaVuSans-73" x="284.375"/>
     <use xlink:href="#DejaVuSans-2e" x="336.474609"/>
     <use xlink:href="#DejaVuSans-20" x="368.261719"/>
     <use xlink:href="#DejaVuSans-53" x="400.048828"/>
     <use xlink:href="#DejaVuSans-61" x="463.525391"/>
     <use xlink:href="#DejaVuSans-6c" x="524.804688"/>
     <use xlink:href="#DejaVuSans-61" x="552.587891"/>
     <use xlink:href="#DejaVuSans-72" x="613.867188"/>
     <use xlink:href="#DejaVuSans-79" x="654.980469"/>
    </g>
   </g>
   <g id="legend_1">
    <g id="patch_7">
     <path d="M 76.77 93.5925 
L 144.924688 93.5925 
Q 146.924688 93.5925 146.924688 91.5925 
L 146.924688 33.88 
Q 146.924688 31.88 144.924688 31.88 
L 76.77 31.88 
Q 74.77 31.88 74.77 33.88 
L 74.77 91.5925 
Q 74.77 93.5925 76.77 93.5925 
z
" style="fill: #ffffff; opacity: 0.8; stroke: #cccccc; stroke-linejoin: miter"/>
    </g>
    <g id="text_17">
     <!-- Gender -->
     <g transform="translate(92.421563 43.478437) scale(0.1 -0.1)">
      <defs>
       <path id="DejaVuSans-47" d="M 3809 666 
L 3809 1919 
L 2778 1919 
L 2778 2438 
L 4434 2438 
L 4434 434 
Q 4069 175 3628 42 
Q 3188 -91 2688 -91 
Q 1594 -91 976 548 
Q 359 1188 359 2328 
Q 359 3472 976 4111 
Q 1594 4750 2688 4750 
Q 3144 4750 3555 4637 
Q 3966 4525 4313 4306 
L 4313 3634 
Q 3963 3931 3569 4081 
Q 3175 4231 2741 4231 
Q 1884 4231 1454 3753 
Q 1025 3275 1025 2328 
Q 1025 1384 1454 906 
Q 1884 428 2741 428 
Q 3075 428 3337 486 
Q 3600 544 3809 666 
z
" transform="scale(0.015625)"/>
       <path id="DejaVuSans-6e" d="M 3513 2113 
L 3513 0 
L 2938 0 
L 2938 2094 
Q 2938 2591 2744 2837 
Q 2550 3084 2163 3084 
Q 1697 3084 1428 2787 
Q 1159 2491 1159 1978 
L 1159 0 
L 581 0 
L 581 3500 
L 1159 3500 
L 1159 2956 
Q 1366 3272 1645 3428 
Q 1925 3584 2291 3584 
Q 2894 3584 3203 3211 
Q 3513 2838 3513 2113 
z
" transform="scale(0.015625)"/>
       <path id="DejaVuSans-64" d="M 2906 2969 
L 2906 4863 
L 3481 4863 
L 3481 0 
L 2906 0 
L 2906 525 
Q 2725 213 2448 61 
Q 2172 -91 1784 -91 
Q 1150 -91 751 415 
Q 353 922 353 1747 
Q 353 2572 751 3078 
Q 1150 3584 1784 3584 
Q 2172 3584 2448 3432 
Q 2725 3281 2906 2969 
z
M 947 1747 
Q 947 1113 1208 752 
Q 1469 391 1925 391 
Q 2381 391 2643 752 
Q 2906 1113 2906 1747 
Q 2906 2381 2643 2742 
Q 2381 3103 1925 3103 
Q 1469 3103 1208 2742 
Q 947 2381 947 1747 
z
" transform="scale(0.015625)"/>
      </defs>
      <use xlink:href="#DejaVuSans-47"/>
      <use xlink:href="#DejaVuSans-65" x="77.490234"/>
      <use xlink:href="#DejaVuSans-6e" x="139.013672"/>
      <use xlink:href="#DejaVuSans-64" x="202.392578"/>
      <use xlink:href="#DejaVuSans-65" x="265.869141"/>
      <use xlink:href="#DejaVuSans-72" x="327.392578"/>
     </g>
    </g>
    <g id="line2d_20">
     <path d="M 78.77 54.656563 
L 88.77 54.656563 
L 98.77 54.656563 
" style="fill: none; stroke: #0000ff; stroke-width: 1.5; stroke-linecap: square"/>
    </g>
    <g id="text_18">
     <!-- Male -->
     <g transform="translate(106.77 58.156563) scale(0.1 -0.1)">
      <defs>
       <path id="DejaVuSans-4d" d="M 628 4666 
L 1569 4666 
L 2759 1491 
L 3956 4666 
L 4897 4666 
L 4897 0 
L 4281 0 
L 4281 4097 
L 3078 897 
L 2444 897 
L 1241 4097 
L 1241 0 
L 628 0 
L 628 4666 
z
" transform="scale(0.015625)"/>
      </defs>
      <use xlink:href="#DejaVuSans-4d"/>
      <use xlink:href="#DejaVuSans-61" x="86.279297"/>
      <use xlink:href="#DejaVuSans-6c" x="147.558594"/>
      <use xlink:href="#DejaVuSans-65" x="175.341797"/>
     </g>
    </g>
    <g id="line2d_21">
     <path d="M 78.77 69.334688 
L 88.77 69.334688 
L 98.77 69.334688 
" style="fill: none; stroke: #ff0000; stroke-width: 1.5; stroke-linecap: square"/>
    </g>
    <g id="text_19">
     <!-- Female -->
     <g transform="translate(106.77 72.834688) scale(0.1 -0.1)">
      <defs>
       <path id="DejaVuSans-46" d="M 628 4666 
L 3309 4666 
L 3309 4134 
L 1259 4134 
L 1259 2759 
L 3109 2759 
L 3109 2228 
L 1259 2228 
L 1259 0 
L 628 0 
L 628 4666 
z
" transform="scale(0.015625)"/>
       <path id="DejaVuSans-6d" d="M 3328 2828 
Q 3544 3216 3844 3400 
Q 4144 3584 4550 3584 
Q 5097 3584 5394 3201 
Q 5691 2819 5691 2113 
L 5691 0 
L 5113 0 
L 5113 2094 
Q 5113 2597 4934 2840 
Q 4756 3084 4391 3084 
Q 3944 3084 3684 2787 
Q 3425 2491 3425 1978 
L 3425 0 
L 2847 0 
L 2847 2094 
Q 2847 2600 2669 2842 
Q 2491 3084 2119 3084 
Q 1678 3084 1418 2786 
Q 1159 2488 1159 1978 
L 1159 0 
L 581 0 
L 581 3500 
L 1159 3500 
L 1159 2956 
Q 1356 3278 1631 3431 
Q 1906 3584 2284 3584 
Q 2666 3584 2933 3390 
Q 3200 3197 3328 2828 
z
" transform="scale(0.015625)"/>
      </defs>
      <use xlink:href="#DejaVuSans-46"/>
      <use xlink:href="#DejaVuSans-65" x="52.019531"/>
      <use xlink:href="#DejaVuSans-6d" x="113.542969"/>
      <use xlink:href="#DejaVuSans-61" x="210.955078"/>
      <use xlink:href="#DejaVuSans-6c" x="272.234375"/>
      <use xlink:href="#DejaVuSans-65" x="300.017578"/>
     </g>
    </g>
    <g id="line2d_22">
     <path d="M 78.77 84.012812 
L 88.77 84.012812 
L 98.77 84.012812 
" style="fill: none; stroke: #008000; stroke-width: 1.5; stroke-linecap: square"/>
    </g>
    <g id="text_20">
     <!-- Other -->
     <g transform="translate(106.77 87.512812) scale(0.1 -0.1)">
      <defs>
       <path id="DejaVuSans-4f" d="M 2522 4238 
Q 1834 4238 1429 3725 
Q 1025 3213 1025 2328 
Q 1025 1447 1429 934 
Q 1834 422 2522 422 
Q 3209 422 3611 934 
Q 4013 1447 4013 2328 
Q 4013 3213 3611 3725 
Q 3209 4238 2522 4238 
z
M 2522 4750 
Q 3503 4750 4090 4092 
Q 4678 3434 4678 2328 
Q 4678 1225 4090 567 
Q 3503 -91 2522 -91 
Q 1538 -91 948 565 
Q 359 1222 359 2328 
Q 359 3434 948 4092 
Q 1538 4750 2522 4750 
z
" transform="scale(0.015625)"/>
       <path id="DejaVuSans-74" d="M 1172 4494 
L 1172 3500 
L 2356 3500 
L 2356 3053 
L 1172 3053 
L 1172 1153 
Q 1172 725 1289 603 
Q 1406 481 1766 481 
L 2356 481 
L 2356 0 
L 1766 0 
Q 1100 0 847 248 
Q 594 497 594 1153 
L 594 3053 
L 172 3053 
L 172 3500 
L 594 3500 
L 594 4494 
L 1172 4494 
z
" transform="scale(0.015625)"/>
       <path id="DejaVuSans-68" d="M 3513 2113 
L 3513 0 
L 2938 0 
L 2938 2094 
Q 2938 2591 2744 2837 
Q 2550 3084 2163 3084 
Q 1697 3084 1428 2787 
Q 1159 2491 1159 1978 
L 1159 0 
L 581 0 
L 581 4863 
L 1159 4863 
L 1159 2956 
Q 1366 3272 1645 3428 
Q 1925 3584 2291 3584 
Q 2894 3584 3203 3211 
Q 3513 2838 3513 2113 
z
" transform="scale(0.015625)"/>
      </defs>
      <use xlink:href="#DejaVuSans-4f"/>
      <use xlink:href="#DejaVuSans-74" x="78.710938"/>
      <use xlink:href="#DejaVuSans-68" x="117.919922"/>
      <use xlink:href="#DejaVuSans-65" x="181.298828"/>
      <use xlink:href="#DejaVuSans-72" x="242.822266"/>
     </g>
    </g>
   </g>
  </g>
  <g id="axes_2">
   <g id="patch_8">
    <path d="M 496.068323 318.04 
L 852.596646 318.04 
L 852.596646 26.88 
L 496.068323 26.88 
z
" style="fill: #ffffff"/>
   </g>
   <g id="PolyCollection_4">
    <path d="M 512.274156 275.79808 
L 512.274156 298.148112 
L 521.806999 283.224011 
L 526.57342 296.708887 
L 531.339841 275.569357 
L 540.872684 259.88394 
L 550.405527 245.943362 
L 559.93837 230.153606 
L 569.471213 215.205011 
L 579.004056 202.229178 
L 588.536898 194.976143 
L 598.069741 180.823742 
L 607.602584 182.281389 
L 617.135427 172.814448 
L 626.66827 153.950287 
L 636.201113 152.320158 
L 645.733956 145.247207 
L 655.266798 134.678577 
L 664.799641 128.206978 
L 674.332484 123.779282 
L 683.865327 117.274619 
L 693.39817 117.167732 
L 702.931013 128.248824 
L 712.463856 118.694261 
L 721.996698 113.252914 
L 731.529541 108.826348 
L 741.062384 107.642893 
L 750.595227 111.82774 
L 760.12807 96.299435 
L 769.660913 96.591016 
L 779.193756 95.303938 
L 779.193756 87.966776 
L 779.193756 87.966776 
L 769.660913 89.608203 
L 760.12807 87.370769 
L 750.595227 70.009096 
L 741.062384 40.114545 
L 731.529541 71.617125 
L 721.996698 85.850897 
L 712.463856 89.555839 
L 702.931013 98.126861 
L 693.39817 100.071943 
L 683.865327 93.740007 
L 674.332484 97.552091 
L 664.799641 109.254091 
L 655.266798 116.554168 
L 645.733956 122.905279 
L 636.201113 133.818037 
L 626.66827 132.737184 
L 617.135427 146.066515 
L 607.602584 159.870505 
L 598.069741 160.19032 
L 588.536898 173.324879 
L 579.004056 181.284765 
L 569.471213 195.409207 
L 559.93837 202.614745 
L 550.405527 230.477306 
L 540.872684 245.536338 
L 531.339841 262.357185 
L 526.57342 291.708065 
L 521.806999 268.798759 
L 512.274156 275.79808 
z
" clip-path="url(#pdd880fe996)" style="fill: #0000ff; fill-opacity: 0.2; stroke: #0000ff; stroke-opacity: 0.2"/>
    <path d="M 798.259441 94.914408 
L 798.259441 97.129438 
L 798.259441 94.914408 
L 798.259441 94.914408 
z
" clip-path="url(#pdd880fe996)" style="fill: #0000ff; fill-opacity: 0.2; stroke: #0000ff; stroke-opacity: 0.2"/>
   </g>
   <g id="PolyCollection_5">
    <path d="M 512.274156 289.549901 
L 512.274156 304.805455 
L 512.274156 289.549901 
L 512.274156 289.549901 
z
" clip-path="url(#pdd880fe996)" style="fill: #ff0000; fill-opacity: 0.2; stroke: #ff0000; stroke-opacity: 0.2"/>
    <path d="M 521.806999 285.877427 
L 521.806999 294.566456 
L 526.57342 292.263712 
L 531.339841 278.392737 
L 540.872684 265.27666 
L 550.405527 249.924495 
L 559.93837 229.900738 
L 569.471213 206.193027 
L 579.004056 213.847272 
L 588.536898 209.013567 
L 598.069741 188.547086 
L 607.602584 200.238027 
L 617.135427 162.180275 
L 626.66827 171.223145 
L 636.201113 172.037048 
L 645.733956 152.573521 
L 655.266798 170.121251 
L 664.799641 125.908671 
L 674.332484 160.019768 
L 683.865327 137.992933 
L 693.39817 134.264057 
L 702.931013 125.612987 
L 712.463856 116.379937 
L 721.996698 138.108766 
L 731.529541 113.542363 
L 741.062384 98.001581 
L 750.595227 123.692429 
L 750.595227 98.43832 
L 750.595227 98.43832 
L 741.062384 86.332998 
L 731.529541 101.660432 
L 721.996698 108.201457 
L 712.463856 102.160958 
L 702.931013 87.421444 
L 693.39817 98.581674 
L 683.865327 113.394697 
L 674.332484 94.453443 
L 664.799641 99.318495 
L 655.266798 135.331258 
L 645.733956 127.307746 
L 636.201113 147.724655 
L 626.66827 145.52874 
L 617.135427 134.809791 
L 607.602584 169.861754 
L 598.069741 163.141926 
L 588.536898 186.45586 
L 579.004056 191.742891 
L 569.471213 181.960849 
L 559.93837 212.477199 
L 550.405527 229.824592 
L 540.872684 249.266256 
L 531.339841 266.172593 
L 526.57342 281.150776 
L 521.806999 285.877427 
z
" clip-path="url(#pdd880fe996)" style="fill: #ff0000; fill-opacity: 0.2; stroke: #ff0000; stroke-opacity: 0.2"/>
    <path d="M 788.726598 83.636555 
L 788.726598 89.28415 
L 798.259441 181.423284 
L 807.792284 87.58387 
L 817.325127 88.318658 
L 826.85797 104.437305 
L 826.85797 87.62121 
L 826.85797 87.62121 
L 817.325127 87.994604 
L 807.792284 80.201324 
L 798.259441 99.159105 
L 788.726598 83.636555 
z
" clip-path="url(#pdd880fe996)" style="fill: #ff0000; fill-opacity: 0.2; stroke: #ff0000; stroke-opacity: 0.2"/>
   </g>
   <g id="PolyCollection_6">
    <path d="M 531.339841 251.325432 
L 531.339841 259.566786 
L 531.339841 251.325432 
L 531.339841 251.325432 
z
" clip-path="url(#pdd880fe996)" style="fill: #008000; fill-opacity: 0.2; stroke: #008000; stroke-opacity: 0.2"/>
    <path d="M 788.726598 131.393733 
L 788.726598 132.343222 
L 788.726598 131.393733 
L 788.726598 131.393733 
z
" clip-path="url(#pdd880fe996)" style="fill: #008000; fill-opacity: 0.2; stroke: #008000; stroke-opacity: 0.2"/>
   </g>
   <g id="matplotlib.axis_3">
    <g id="xtick_6">
     <g id="line2d_23">
      <g>
       <use xlink:href="#m7a0944c596" x="512.274156" y="318.04" style="stroke: #000000; stroke-width: 0.8"/>
      </g>
     </g>
     <g id="text_21">
      <!-- 0 -->
      <g transform="translate(509.092906 332.638438) scale(0.1 -0.1)">
       <use xlink:href="#DejaVuSans-30"/>
      </g>
     </g>
    </g>
    <g id="xtick_7">
     <g id="line2d_24">
      <g>
       <use xlink:href="#m7a0944c596" x="559.93837" y="318.04" style="stroke: #000000; stroke-width: 0.8"/>
      </g>
     </g>
     <g id="text_22">
      <!-- 5 -->
      <g transform="translate(556.75712 332.638438) scale(0.1 -0.1)">
       <use xlink:href="#DejaVuSans-35"/>
      </g>
     </g>
    </g>
    <g id="xtick_8">
     <g id="line2d_25">
      <g>
       <use xlink:href="#m7a0944c596" x="607.602584" y="318.04" style="stroke: #000000; stroke-width: 0.8"/>
      </g>
     </g>
     <g id="text_23">
      <!-- 10 -->
      <g transform="translate(601.240084 332.638438) scale(0.1 -0.1)">
       <use xlink:href="#DejaVuSans-31"/>
       <use xlink:href="#DejaVuSans-30" x="63.623047"/>
      </g>
     </g>
    </g>
    <g id="xtick_9">
     <g id="line2d_26">
      <g>
       <use xlink:href="#m7a0944c596" x="655.266798" y="318.04" style="stroke: #000000; stroke-width: 0.8"/>
      </g>
     </g>
     <g id="text_24">
      <!-- 15 -->
      <g transform="translate(648.904298 332.638438) scale(0.1 -0.1)">
       <use xlink:href="#DejaVuSans-31"/>
       <use xlink:href="#DejaVuSans-35" x="63.623047"/>
      </g>
     </g>
    </g>
    <g id="xtick_10">
     <g id="line2d_27">
      <g>
       <use xlink:href="#m7a0944c596" x="702.931013" y="318.04" style="stroke: #000000; stroke-width: 0.8"/>
      </g>
     </g>
     <g id="text_25">
      <!-- 20 -->
      <g transform="translate(696.568513 332.638438) scale(0.1 -0.1)">
       <use xlink:href="#DejaVuSans-32"/>
       <use xlink:href="#DejaVuSans-30" x="63.623047"/>
      </g>
     </g>
    </g>
    <g id="xtick_11">
     <g id="line2d_28">
      <g>
       <use xlink:href="#m7a0944c596" x="750.595227" y="318.04" style="stroke: #000000; stroke-width: 0.8"/>
      </g>
     </g>
     <g id="text_26">
      <!-- 25 -->
      <g transform="translate(744.232727 332.638438) scale(0.1 -0.1)">
       <use xlink:href="#DejaVuSans-32"/>
       <use xlink:href="#DejaVuSans-35" x="63.623047"/>
      </g>
     </g>
    </g>
    <g id="xtick_12">
     <g id="line2d_29">
      <g>
       <use xlink:href="#m7a0944c596" x="798.259441" y="318.04" style="stroke: #000000; stroke-width: 0.8"/>
      </g>
     </g>
     <g id="text_27">
      <!-- 30 -->
      <g transform="translate(791.896941 332.638438) scale(0.1 -0.1)">
       <use xlink:href="#DejaVuSans-33"/>
       <use xlink:href="#DejaVuSans-30" x="63.623047"/>
      </g>
     </g>
    </g>
    <g id="xtick_13">
     <g id="line2d_30">
      <g>
       <use xlink:href="#m7a0944c596" x="845.923656" y="318.04" style="stroke: #000000; stroke-width: 0.8"/>
      </g>
     </g>
     <g id="text_28">
      <!-- 35 -->
      <g transform="translate(839.561156 332.638438) scale(0.1 -0.1)">
       <use xlink:href="#DejaVuSans-33"/>
       <use xlink:href="#DejaVuSans-35" x="63.623047"/>
      </g>
     </g>
    </g>
    <g id="text_29">
     <!-- Years of Experience -->
     <g transform="translate(625.257484 346.316563) scale(0.1 -0.1)">
      <defs>
       <path id="DejaVuSans-59" d="M -13 4666 
L 666 4666 
L 1959 2747 
L 3244 4666 
L 3922 4666 
L 2272 2222 
L 2272 0 
L 1638 0 
L 1638 2222 
L -13 4666 
z
" transform="scale(0.015625)"/>
       <path id="DejaVuSans-6f" d="M 1959 3097 
Q 1497 3097 1228 2736 
Q 959 2375 959 1747 
Q 959 1119 1226 758 
Q 1494 397 1959 397 
Q 2419 397 2687 759 
Q 2956 1122 2956 1747 
Q 2956 2369 2687 2733 
Q 2419 3097 1959 3097 
z
M 1959 3584 
Q 2709 3584 3137 3096 
Q 3566 2609 3566 1747 
Q 3566 888 3137 398 
Q 2709 -91 1959 -91 
Q 1206 -91 779 398 
Q 353 888 353 1747 
Q 353 2609 779 3096 
Q 1206 3584 1959 3584 
z
" transform="scale(0.015625)"/>
       <path id="DejaVuSans-66" d="M 2375 4863 
L 2375 4384 
L 1825 4384 
Q 1516 4384 1395 4259 
Q 1275 4134 1275 3809 
L 1275 3500 
L 2222 3500 
L 2222 3053 
L 1275 3053 
L 1275 0 
L 697 0 
L 697 3053 
L 147 3053 
L 147 3500 
L 697 3500 
L 697 3744 
Q 697 4328 969 4595 
Q 1241 4863 1831 4863 
L 2375 4863 
z
" transform="scale(0.015625)"/>
       <path id="DejaVuSans-45" d="M 628 4666 
L 3578 4666 
L 3578 4134 
L 1259 4134 
L 1259 2753 
L 3481 2753 
L 3481 2222 
L 1259 2222 
L 1259 531 
L 3634 531 
L 3634 0 
L 628 0 
L 628 4666 
z
" transform="scale(0.015625)"/>
       <path id="DejaVuSans-78" d="M 3513 3500 
L 2247 1797 
L 3578 0 
L 2900 0 
L 1881 1375 
L 863 0 
L 184 0 
L 1544 1831 
L 300 3500 
L 978 3500 
L 1906 2253 
L 2834 3500 
L 3513 3500 
z
" transform="scale(0.015625)"/>
       <path id="DejaVuSans-70" d="M 1159 525 
L 1159 -1331 
L 581 -1331 
L 581 3500 
L 1159 3500 
L 1159 2969 
Q 1341 3281 1617 3432 
Q 1894 3584 2278 3584 
Q 2916 3584 3314 3078 
Q 3713 2572 3713 1747 
Q 3713 922 3314 415 
Q 2916 -91 2278 -91 
Q 1894 -91 1617 61 
Q 1341 213 1159 525 
z
M 3116 1747 
Q 3116 2381 2855 2742 
Q 2594 3103 2138 3103 
Q 1681 3103 1420 2742 
Q 1159 2381 1159 1747 
Q 1159 1113 1420 752 
Q 1681 391 2138 391 
Q 2594 391 2855 752 
Q 3116 1113 3116 1747 
z
" transform="scale(0.015625)"/>
       <path id="DejaVuSans-69" d="M 603 3500 
L 1178 3500 
L 1178 0 
L 603 0 
L 603 3500 
z
M 603 4863 
L 1178 4863 
L 1178 4134 
L 603 4134 
L 603 4863 
z
" transform="scale(0.015625)"/>
       <path id="DejaVuSans-63" d="M 3122 3366 
L 3122 2828 
Q 2878 2963 2633 3030 
Q 2388 3097 2138 3097 
Q 1578 3097 1268 2742 
Q 959 2388 959 1747 
Q 959 1106 1268 751 
Q 1578 397 2138 397 
Q 2388 397 2633 464 
Q 2878 531 3122 666 
L 3122 134 
Q 2881 22 2623 -34 
Q 2366 -91 2075 -91 
Q 1284 -91 818 406 
Q 353 903 353 1747 
Q 353 2603 823 3093 
Q 1294 3584 2113 3584 
Q 2378 3584 2631 3529 
Q 2884 3475 3122 3366 
z
" transform="scale(0.015625)"/>
      </defs>
      <use xlink:href="#DejaVuSans-59"/>
      <use xlink:href="#DejaVuSans-65" x="47.833984"/>
      <use xlink:href="#DejaVuSans-61" x="109.357422"/>
      <use xlink:href="#DejaVuSans-72" x="170.636719"/>
      <use xlink:href="#DejaVuSans-73" x="211.75"/>
      <use xlink:href="#DejaVuSans-20" x="263.849609"/>
      <use xlink:href="#DejaVuSans-6f" x="295.636719"/>
      <use xlink:href="#DejaVuSans-66" x="356.818359"/>
      <use xlink:href="#DejaVuSans-20" x="392.023438"/>
      <use xlink:href="#DejaVuSans-45" x="423.810547"/>
      <use xlink:href="#DejaVuSans-78" x="486.994141"/>
      <use xlink:href="#DejaVuSans-70" x="546.173828"/>
      <use xlink:href="#DejaVuSans-65" x="609.650391"/>
      <use xlink:href="#DejaVuSans-72" x="671.173828"/>
      <use xlink:href="#DejaVuSans-69" x="712.287109"/>
      <use xlink:href="#DejaVuSans-65" x="740.070312"/>
      <use xlink:href="#DejaVuSans-6e" x="801.59375"/>
      <use xlink:href="#DejaVuSans-63" x="864.972656"/>
      <use xlink:href="#DejaVuSans-65" x="919.953125"/>
     </g>
    </g>
   </g>
   <g id="matplotlib.axis_4">
    <g id="ytick_9">
     <g id="line2d_31">
      <g>
       <use xlink:href="#m2b57c82886" x="496.068323" y="310.04441" style="stroke: #000000; stroke-width: 0.8"/>
      </g>
     </g>
     <g id="text_30">
      <!-- 25000 -->
      <g transform="translate(457.255823 313.843629) scale(0.1 -0.1)">
       <use xlink:href="#DejaVuSans-32"/>
       <use xlink:href="#DejaVuSans-35" x="63.623047"/>
       <use xlink:href="#DejaVuSans-30" x="127.246094"/>
       <use xlink:href="#DejaVuSans-30" x="190.869141"/>
       <use xlink:href="#DejaVuSans-30" x="254.492188"/>
      </g>
     </g>
    </g>
    <g id="ytick_10">
     <g id="line2d_32">
      <g>
       <use xlink:href="#m2b57c82886" x="496.068323" y="276.705601" style="stroke: #000000; stroke-width: 0.8"/>
      </g>
     </g>
     <g id="text_31">
      <!-- 50000 -->
      <g transform="translate(457.255823 280.50482) scale(0.1 -0.1)">
       <use xlink:href="#DejaVuSans-35"/>
       <use xlink:href="#DejaVuSans-30" x="63.623047"/>
       <use xlink:href="#DejaVuSans-30" x="127.246094"/>
       <use xlink:href="#DejaVuSans-30" x="190.869141"/>
       <use xlink:href="#DejaVuSans-30" x="254.492188"/>
      </g>
     </g>
    </g>
    <g id="ytick_11">
     <g id="line2d_33">
      <g>
       <use xlink:href="#m2b57c82886" x="496.068323" y="243.366792" style="stroke: #000000; stroke-width: 0.8"/>
      </g>
     </g>
     <g id="text_32">
      <!-- 75000 -->
      <g transform="translate(457.255823 247.16601) scale(0.1 -0.1)">
       <use xlink:href="#DejaVuSans-37"/>
       <use xlink:href="#DejaVuSans-35" x="63.623047"/>
       <use xlink:href="#DejaVuSans-30" x="127.246094"/>
       <use xlink:href="#DejaVuSans-30" x="190.869141"/>
       <use xlink:href="#DejaVuSans-30" x="254.492188"/>
      </g>
     </g>
    </g>
    <g id="ytick_12">
     <g id="line2d_34">
      <g>
       <use xlink:href="#m2b57c82886" x="496.068323" y="210.027982" style="stroke: #000000; stroke-width: 0.8"/>
      </g>
     </g>
     <g id="text_33">
      <!-- 100000 -->
      <g transform="translate(450.893323 213.827201) scale(0.1 -0.1)">
       <use xlink:href="#DejaVuSans-31"/>
       <use xlink:href="#DejaVuSans-30" x="63.623047"/>
       <use xlink:href="#DejaVuSans-30" x="127.246094"/>
       <use xlink:href="#DejaVuSans-30" x="190.869141"/>
       <use xlink:href="#DejaVuSans-30" x="254.492188"/>
       <use xlink:href="#DejaVuSans-30" x="318.115234"/>
      </g>
     </g>
    </g>
    <g id="ytick_13">
     <g id="line2d_35">
      <g>
       <use xlink:href="#m2b57c82886" x="496.068323" y="176.689173" style="stroke: #000000; stroke-width: 0.8"/>
      </g>
     </g>
     <g id="text_34">
      <!-- 125000 -->
      <g transform="translate(450.893323 180.488392) scale(0.1 -0.1)">
       <use xlink:href="#DejaVuSans-31"/>
       <use xlink:href="#DejaVuSans-32" x="63.623047"/>
       <use xlink:href="#DejaVuSans-35" x="127.246094"/>
       <use xlink:href="#DejaVuSans-30" x="190.869141"/>
       <use xlink:href="#DejaVuSans-30" x="254.492188"/>
       <use xlink:href="#DejaVuSans-30" x="318.115234"/>
      </g>
     </g>
    </g>
    <g id="ytick_14">
     <g id="line2d_36">
      <g>
       <use xlink:href="#m2b57c82886" x="496.068323" y="143.350363" style="stroke: #000000; stroke-width: 0.8"/>
      </g>
     </g>
     <g id="text_35">
      <!-- 150000 -->
      <g transform="translate(450.893323 147.149582) scale(0.1 -0.1)">
       <use xlink:href="#DejaVuSans-31"/>
       <use xlink:href="#DejaVuSans-35" x="63.623047"/>
       <use xlink:href="#DejaVuSans-30" x="127.246094"/>
       <use xlink:href="#DejaVuSans-30" x="190.869141"/>
       <use xlink:href="#DejaVuSans-30" x="254.492188"/>
       <use xlink:href="#DejaVuSans-30" x="318.115234"/>
      </g>
     </g>
    </g>
    <g id="ytick_15">
     <g id="line2d_37">
      <g>
       <use xlink:href="#m2b57c82886" x="496.068323" y="110.011554" style="stroke: #000000; stroke-width: 0.8"/>
      </g>
     </g>
     <g id="text_36">
      <!-- 175000 -->
      <g transform="translate(450.893323 113.810773) scale(0.1 -0.1)">
       <use xlink:href="#DejaVuSans-31"/>
       <use xlink:href="#DejaVuSans-37" x="63.623047"/>
       <use xlink:href="#DejaVuSans-35" x="127.246094"/>
       <use xlink:href="#DejaVuSans-30" x="190.869141"/>
       <use xlink:href="#DejaVuSans-30" x="254.492188"/>
       <use xlink:href="#DejaVuSans-30" x="318.115234"/>
      </g>
     </g>
    </g>
    <g id="ytick_16">
     <g id="line2d_38">
      <g>
       <use xlink:href="#m2b57c82886" x="496.068323" y="76.672745" style="stroke: #000000; stroke-width: 0.8"/>
      </g>
     </g>
     <g id="text_37">
      <!-- 200000 -->
      <g transform="translate(450.893323 80.471963) scale(0.1 -0.1)">
       <use xlink:href="#DejaVuSans-32"/>
       <use xlink:href="#DejaVuSans-30" x="63.623047"/>
       <use xlink:href="#DejaVuSans-30" x="127.246094"/>
       <use xlink:href="#DejaVuSans-30" x="190.869141"/>
       <use xlink:href="#DejaVuSans-30" x="254.492188"/>
       <use xlink:href="#DejaVuSans-30" x="318.115234"/>
      </g>
     </g>
    </g>
    <g id="ytick_17">
     <g id="line2d_39">
      <g>
       <use xlink:href="#m2b57c82886" x="496.068323" y="43.333935" style="stroke: #000000; stroke-width: 0.8"/>
      </g>
     </g>
     <g id="text_38">
      <!-- 225000 -->
      <g transform="translate(450.893323 47.133154) scale(0.1 -0.1)">
       <use xlink:href="#DejaVuSans-32"/>
       <use xlink:href="#DejaVuSans-32" x="63.623047"/>
       <use xlink:href="#DejaVuSans-35" x="127.246094"/>
       <use xlink:href="#DejaVuSans-30" x="190.869141"/>
       <use xlink:href="#DejaVuSans-30" x="254.492188"/>
       <use xlink:href="#DejaVuSans-30" x="318.115234"/>
      </g>
     </g>
    </g>
    <g id="text_39">
     <!-- Salary -->
     <g transform="translate(444.813635 188.16625) rotate(-90) scale(0.1 -0.1)">
      <use xlink:href="#DejaVuSans-53"/>
      <use xlink:href="#DejaVuSans-61" x="63.476562"/>
      <use xlink:href="#DejaVuSans-6c" x="124.755859"/>
      <use xlink:href="#DejaVuSans-61" x="152.539062"/>
      <use xlink:href="#DejaVuSans-72" x="213.818359"/>
      <use xlink:href="#DejaVuSans-79" x="254.931641"/>
     </g>
    </g>
   </g>
   <g id="line2d_40">
    <path d="M 512.274156 286.945283 
L 521.806999 276.594734 
L 526.57342 295.041946 
L 531.339841 269.163276 
L 540.872684 252.996445 
L 550.405527 238.744928 
L 559.93837 217.07949 
L 569.471213 205.453806 
L 579.004056 191.786319 
L 588.536898 184.759432 
L 598.069741 170.740779 
L 607.602584 170.666931 
L 617.135427 160.228901 
L 626.66827 143.525167 
L 636.201113 143.275601 
L 645.733956 133.910443 
L 655.266798 125.642961 
L 664.799641 118.919756 
L 674.332484 110.571479 
L 683.865327 105.004998 
L 693.39817 108.440718 
L 702.931013 113.435228 
L 712.463856 105.772897 
L 721.996698 100.447205 
L 731.529541 91.818195 
L 741.062384 76.217337 
L 750.595227 95.749045 
L 760.12807 92.12675 
L 769.660913 93.071772 
L 779.193756 91.585289 
L 788.726598 87.454516 
L 798.259441 96.021923 
L 807.792284 85.012781 
L 817.325127 82.980447 
" clip-path="url(#pdd880fe996)" style="fill: none; stroke: #0000ff; stroke-width: 1.5; stroke-linecap: square"/>
   </g>
   <g id="line2d_41">
    <path d="M 512.274156 297.042846 
L 517.040577 296.708887 
L 521.806999 290.434339 
L 526.57342 286.707244 
L 531.339841 272.633422 
L 540.872684 257.716913 
L 550.405527 239.793775 
L 559.93837 221.878316 
L 569.471213 194.120405 
L 579.004056 202.622766 
L 588.536898 197.908173 
L 598.069741 176.155572 
L 607.602584 185.382399 
L 617.135427 148.360836 
L 626.66827 158.399936 
L 636.201113 159.415224 
L 645.733956 139.991914 
L 655.266798 152.272562 
L 664.799641 112.538151 
L 674.332484 123.347078 
L 683.865327 125.915166 
L 693.39817 115.771738 
L 702.931013 105.844603 
L 712.463856 109.567214 
L 721.996698 120.779747 
L 731.529541 107.723012 
L 741.062384 93.901352 
L 750.595227 110.122017 
L 769.660913 102.066249 
L 779.193756 94.058267 
L 788.726598 85.769795 
L 798.259441 126.632951 
L 807.792284 83.892597 
L 817.325127 88.156631 
L 826.85797 94.808168 
L 836.390813 91.807231 
" clip-path="url(#pdd880fe996)" style="fill: none; stroke: #ff0000; stroke-width: 1.5; stroke-linecap: square"/>
   </g>
   <g id="line2d_42">
    <path d="M 531.339841 255.446109 
L 588.536898 204.524412 
L 645.733956 128.157201 
L 788.726598 131.868478 
L 807.792284 121.868168 
" clip-path="url(#pdd880fe996)" style="fill: none; stroke: #008000; stroke-width: 1.5; stroke-linecap: square"/>
   </g>
   <g id="line2d_43"/>
   <g id="line2d_44"/>
   <g id="line2d_45"/>
   <g id="patch_9">
    <path d="M 496.068323 318.04 
L 496.068323 26.88 
" style="fill: none; stroke: #000000; stroke-width: 0.8; stroke-linejoin: miter; stroke-linecap: square"/>
   </g>
   <g id="patch_10">
    <path d="M 852.596646 318.04 
L 852.596646 26.88 
" style="fill: none; stroke: #000000; stroke-width: 0.8; stroke-linejoin: miter; stroke-linecap: square"/>
   </g>
   <g id="patch_11">
    <path d="M 496.068323 318.04 
L 852.596646 318.04 
" style="fill: none; stroke: #000000; stroke-width: 0.8; stroke-linejoin: miter; stroke-linecap: square"/>
   </g>
   <g id="patch_12">
    <path d="M 496.068323 26.88 
L 852.596646 26.88 
" style="fill: none; stroke: #000000; stroke-width: 0.8; stroke-linejoin: miter; stroke-linecap: square"/>
   </g>
   <g id="text_40">
    <!-- Years of Experience vs. Salary -->
    <g transform="translate(584.197484 20.88) scale(0.12 -0.12)">
     <use xlink:href="#DejaVuSans-59"/>
     <use xlink:href="#DejaVuSans-65" x="47.833984"/>
     <use xlink:href="#DejaVuSans-61" x="109.357422"/>
     <use xlink:href="#DejaVuSans-72" x="170.636719"/>
     <use xlink:href="#DejaVuSans-73" x="211.75"/>
     <use xlink:href="#DejaVuSans-20" x="263.849609"/>
     <use xlink:href="#DejaVuSans-6f" x="295.636719"/>
     <use xlink:href="#DejaVuSans-66" x="356.818359"/>
     <use xlink:href="#DejaVuSans-20" x="392.023438"/>
     <use xlink:href="#DejaVuSans-45" x="423.810547"/>
     <use xlink:href="#DejaVuSans-78" x="486.994141"/>
     <use xlink:href="#DejaVuSans-70" x="546.173828"/>
     <use xlink:href="#DejaVuSans-65" x="609.650391"/>
     <use xlink:href="#DejaVuSans-72" x="671.173828"/>
     <use xlink:href="#DejaVuSans-69" x="712.287109"/>
     <use xlink:href="#DejaVuSans-65" x="740.070312"/>
     <use xlink:href="#DejaVuSans-6e" x="801.59375"/>
     <use xlink:href="#DejaVuSans-63" x="864.972656"/>
     <use xlink:href="#DejaVuSans-65" x="919.953125"/>
     <use xlink:href="#DejaVuSans-20" x="981.476562"/>
     <use xlink:href="#DejaVuSans-76" x="1013.263672"/>
     <use xlink:href="#DejaVuSans-73" x="1072.443359"/>
     <use xlink:href="#DejaVuSans-2e" x="1124.542969"/>
     <use xlink:href="#DejaVuSans-20" x="1156.330078"/>
     <use xlink:href="#DejaVuSans-53" x="1188.117188"/>
     <use xlink:href="#DejaVuSans-61" x="1251.59375"/>
     <use xlink:href="#DejaVuSans-6c" x="1312.873047"/>
     <use xlink:href="#DejaVuSans-61" x="1340.65625"/>
     <use xlink:href="#DejaVuSans-72" x="1401.935547"/>
     <use xlink:href="#DejaVuSans-79" x="1443.048828"/>
    </g>
   </g>
   <g id="legend_2">
    <g id="patch_13">
     <path d="M 503.068323 93.5925 
L 571.22301 93.5925 
Q 573.22301 93.5925 573.22301 91.5925 
L 573.22301 33.88 
Q 573.22301 31.88 571.22301 31.88 
L 503.068323 31.88 
Q 501.068323 31.88 501.068323 33.88 
L 501.068323 91.5925 
Q 501.068323 93.5925 503.068323 93.5925 
z
" style="fill: #ffffff; opacity: 0.8; stroke: #cccccc; stroke-linejoin: miter"/>
    </g>
    <g id="text_41">
     <!-- Gender -->
     <g transform="translate(518.719885 43.478437) scale(0.1 -0.1)">
      <use xlink:href="#DejaVuSans-47"/>
      <use xlink:href="#DejaVuSans-65" x="77.490234"/>
      <use xlink:href="#DejaVuSans-6e" x="139.013672"/>
      <use xlink:href="#DejaVuSans-64" x="202.392578"/>
      <use xlink:href="#DejaVuSans-65" x="265.869141"/>
      <use xlink:href="#DejaVuSans-72" x="327.392578"/>
     </g>
    </g>
    <g id="line2d_46">
     <path d="M 505.068323 54.656563 
L 515.068323 54.656563 
L 525.068323 54.656563 
" style="fill: none; stroke: #0000ff; stroke-width: 1.5; stroke-linecap: square"/>
    </g>
    <g id="text_42">
     <!-- Male -->
     <g transform="translate(533.068323 58.156563) scale(0.1 -0.1)">
      <use xlink:href="#DejaVuSans-4d"/>
      <use xlink:href="#DejaVuSans-61" x="86.279297"/>
      <use xlink:href="#DejaVuSans-6c" x="147.558594"/>
      <use xlink:href="#DejaVuSans-65" x="175.341797"/>
     </g>
    </g>
    <g id="line2d_47">
     <path d="M 505.068323 69.334688 
L 515.068323 69.334688 
L 525.068323 69.334688 
" style="fill: none; stroke: #ff0000; stroke-width: 1.5; stroke-linecap: square"/>
    </g>
    <g id="text_43">
     <!-- Female -->
     <g transform="translate(533.068323 72.834688) scale(0.1 -0.1)">
      <use xlink:href="#DejaVuSans-46"/>
      <use xlink:href="#DejaVuSans-65" x="52.019531"/>
      <use xlink:href="#DejaVuSans-6d" x="113.542969"/>
      <use xlink:href="#DejaVuSans-61" x="210.955078"/>
      <use xlink:href="#DejaVuSans-6c" x="272.234375"/>
      <use xlink:href="#DejaVuSans-65" x="300.017578"/>
     </g>
    </g>
    <g id="line2d_48">
     <path d="M 505.068323 84.012812 
L 515.068323 84.012812 
L 525.068323 84.012812 
" style="fill: none; stroke: #008000; stroke-width: 1.5; stroke-linecap: square"/>
    </g>
    <g id="text_44">
     <!-- Other -->
     <g transform="translate(533.068323 87.512812) scale(0.1 -0.1)">
      <use xlink:href="#DejaVuSans-4f"/>
      <use xlink:href="#DejaVuSans-74" x="78.710938"/>
      <use xlink:href="#DejaVuSans-68" x="117.919922"/>
      <use xlink:href="#DejaVuSans-65" x="181.298828"/>
      <use xlink:href="#DejaVuSans-72" x="242.822266"/>
     </g>
    </g>
   </g>
  </g>
 </g>
 <defs>
  <clipPath id="p7325d038f9">
   <rect x="69.77" y="26.88" width="356.528323" height="291.16"/>
  </clipPath>
  <clipPath id="pdd880fe996">
   <rect x="496.068323" y="26.88" width="356.528323" height="291.16"/>
  </clipPath>
 </defs>
</svg>
