<?xml version="1.0" encoding="utf-8" standalone="no"?>
<!DOCTYPE svg PUBLIC "-//W3C//DTD SVG 1.1//EN"
  "http://www.w3.org/Graphics/SVG/1.1/DTD/svg11.dtd">
<svg xmlns:xlink="http://www.w3.org/1999/xlink" width="864pt" height="360pt" viewBox="0 0 864 360" xmlns="http://www.w3.org/2000/svg" version="1.1">
 <metadata>
  <rdf:RDF xmlns:dc="http://purl.org/dc/elements/1.1/" xmlns:cc="http://creativecommons.org/ns#" xmlns:rdf="http://www.w3.org/1999/02/22-rdf-syntax-ns#">
   <cc:Work>
    <dc:type rdf:resource="http://purl.org/dc/dcmitype/StillImage"/>
    <dc:date>2025-06-23T17:18:53.023110</dc:date>
    <dc:format>image/svg+xml</dc:format>
    <dc:creator>
     <cc:Agent>
      <dc:title>Matplotlib v3.8.4, https://matplotlib.org/</dc:title>
     </cc:Agent>
    </dc:creator>
   </cc:Work>
  </rdf:RDF>
 </metadata>
 <defs>
  <style type="text/css">*{stroke-linejoin: round; stroke-linecap: butt}</style>
 </defs>
 <g id="figure_1">
  <g id="patch_1">
   <path d="M 0 360 
L 864 360 
L 864 0 
L 0 0 
z
" style="fill: #ffffff"/>
  </g>
  <g id="axes_1">
   <g id="patch_2">
    <path d="M 69.77 318.04 
L 426.298323 318.04 
L 426.298323 26.88 
L 69.77 26.88 
z
" style="fill: #ffffff"/>
   </g>
   <g id="PolyCollection_1">
    <path d="M 93.881117 269.342788 
L 93.881117 304.805455 
L 101.786401 277.45774 
L 109.691686 271.488014 
L 117.59697 266.278389 
L 125.502254 256.861818 
L 133.407539 253.847657 
L 141.312823 248.885122 
L 149.218107 237.36233 
L 157.123392 220.536145 
L 165.028676 206.583187 
L 172.93396 206.229186 
L 180.839245 207.053749 
L 188.744529 182.429108 
L 196.649813 192.879333 
L 204.555098 180.296867 
L 212.460382 173.902619 
L 220.365666 164.004737 
L 228.270951 189.315369 
L 236.176235 139.830133 
L 244.081519 136.378648 
L 251.986804 135.842228 
L 259.892088 121.819138 
L 267.797372 131.693627 
L 275.702657 120.387095 
L 283.607941 115.118423 
L 291.513225 99.589941 
L 299.418509 82.273333 
L 307.323794 86.960409 
L 315.229078 84.246462 
L 323.134362 75.256827 
L 331.039647 85.300673 
L 338.944931 83.721259 
L 346.850215 76.738216 
L 354.7555 70.751853 
L 362.660784 63.659319 
L 370.566068 63.659319 
L 378.471353 70.746179 
L 378.471353 56.566786 
L 378.471353 56.566786 
L 370.566068 56.566786 
L 362.660784 63.659319 
L 354.7555 42.381719 
L 346.850215 68.957026 
L 338.944931 63.659319 
L 331.039647 48.202429 
L 323.134362 40.114545 
L 315.229078 44.564311 
L 307.323794 61.311926 
L 299.418509 64.903072 
L 291.513225 84.477168 
L 283.607941 94.352128 
L 275.702657 93.463629 
L 267.797372 98.053211 
L 259.892088 103.44659 
L 251.986804 112.865655 
L 244.081519 111.066503 
L 236.176235 107.742011 
L 228.270951 150.53777 
L 220.365666 136.280107 
L 212.460382 141.271899 
L 204.555098 155.194546 
L 196.649813 170.236992 
L 188.744529 153.239837 
L 180.839245 174.845856 
L 172.93396 173.498754 
L 165.028676 173.919215 
L 157.123392 175.603751 
L 149.218107 210.268191 
L 141.312823 223.906562 
L 133.407539 231.807071 
L 125.502254 235.476334 
L 117.59697 224.385731 
L 109.691686 244.218657 
L 101.786401 246.405607 
L 93.881117 269.342788 
z
" clip-path="url(#p5e29694bea)" style="fill: #0000ff; fill-opacity: 0.2; stroke: #0000ff; stroke-opacity: 0.2"/>
    <path d="M 410.09249 56.566786 
L 410.09249 56.566786 
L 410.09249 56.566786 
L 410.09249 56.566786 
z
" clip-path="url(#p5e29694bea)" style="fill: #0000ff; fill-opacity: 0.2; stroke: #0000ff; stroke-opacity: 0.2"/>
   </g>
   <g id="PolyCollection_2">
    <path d="M 93.881117 270.940026 
L 93.881117 304.805455 
L 101.786401 286.523979 
L 109.691686 284.099252 
L 117.59697 278.385768 
L 125.502254 268.424367 
L 133.407539 251.972849 
L 141.312823 248.997957 
L 149.218107 245.637374 
L 157.123392 231.770457 
L 165.028676 231.815146 
L 172.93396 211.497547 
L 180.839245 193.814426 
L 188.744529 194.001105 
L 196.649813 179.944186 
L 204.555098 196.235204 
L 212.460382 178.618639 
L 220.365666 184.508346 
L 228.270951 182.822978 
L 236.176235 190.526112 
L 244.081519 167.87242 
L 251.986804 155.470383 
L 259.892088 140.549438 
L 267.797372 126.24119 
L 275.702657 129.626078 
L 283.607941 118.73746 
L 291.513225 99.121986 
L 299.418509 103.823511 
L 307.323794 114.085154 
L 315.229078 101.393254 
L 323.134362 113.751117 
L 331.039647 86.085709 
L 346.850215 70.216367 
L 354.7555 80.653029 
L 362.660784 60.320155 
L 370.566068 167.990486 
L 370.566068 68.212726 
L 370.566068 68.212726 
L 362.660784 42.381719 
L 354.7555 69.981604 
L 346.850215 68.368407 
L 331.039647 67.214783 
L 323.134362 73.201209 
L 315.229078 83.646665 
L 307.323794 73.267705 
L 299.418509 80.1687 
L 291.513225 84.93692 
L 283.607941 85.584833 
L 275.702657 97.288202 
L 267.797372 105.997185 
L 259.892088 117.028253 
L 251.986804 130.962142 
L 244.081519 124.791643 
L 236.176235 141.460615 
L 228.270951 138.940121 
L 220.365666 150.519605 
L 212.460382 143.118992 
L 204.555098 155.006765 
L 196.649813 142.942406 
L 188.744529 146.613847 
L 180.839245 167.864524 
L 172.93396 175.118717 
L 165.028676 193.925024 
L 157.123392 201.52988 
L 149.218107 217.51004 
L 141.312823 219.188565 
L 133.407539 224.845686 
L 125.502254 246.734837 
L 117.59697 251.493245 
L 109.691686 259.448163 
L 101.786401 269.350524 
L 93.881117 270.940026 
z
" clip-path="url(#p5e29694bea)" style="fill: #ff0000; fill-opacity: 0.2; stroke: #ff0000; stroke-opacity: 0.2"/>
    <path d="M 394.281921 72.665418 
L 394.281921 86.100095 
L 394.281921 72.665418 
L 394.281921 72.665418 
z
" clip-path="url(#p5e29694bea)" style="fill: #ff0000; fill-opacity: 0.2; stroke: #ff0000; stroke-opacity: 0.2"/>
   </g>
   <g id="PolyCollection_3">
    <defs>
     <path id="m67f8d6e2f3" d="M 346.850215 -245.226211 
L 346.850215 -244.216234 
L 346.850215 -245.226211 
L 346.850215 -245.226211 
z
" style="stroke: #008000; stroke-opacity: 0.2"/>
    </defs>
    <g clip-path="url(#p5e29694bea)">
     <use xlink:href="#m67f8d6e2f3" x="0" y="360" style="fill: #008000; fill-opacity: 0.2; stroke: #008000; stroke-opacity: 0.2"/>
    </g>
   </g>
   <g id="matplotlib.axis_1">
    <g id="xtick_1">
     <g id="line2d_1">
      <defs>
       <path id="m71f8b1d3dd" d="M 0 0 
L 0 3.5 
" style="stroke: #000000; stroke-width: 0.8"/>
      </defs>
      <g>
       <use xlink:href="#m71f8b1d3dd" x="78.070549" y="318.04" style="stroke: #000000; stroke-width: 0.8"/>
      </g>
     </g>
     <g id="text_1">
      <!-- 20 -->
      <g transform="translate(71.708049 332.638438) scale(0.1 -0.1)">
       <defs>
        <path id="DejaVuSans-32" d="M 1228 531 
L 3431 531 
L 3431 0 
L 469 0 
L 469 531 
Q 828 903 1448 1529 
Q 2069 2156 2228 2338 
Q 2531 2678 2651 2914 
Q 2772 3150 2772 3378 
Q 2772 3750 2511 3984 
Q 2250 4219 1831 4219 
Q 1534 4219 1204 4116 
Q 875 4013 500 3803 
L 500 4441 
Q 881 4594 1212 4672 
Q 1544 4750 1819 4750 
Q 2544 4750 2975 4387 
Q 3406 4025 3406 3419 
Q 3406 3131 3298 2873 
Q 3191 2616 2906 2266 
Q 2828 2175 2409 1742 
Q 1991 1309 1228 531 
z
" transform="scale(0.015625)"/>
        <path id="DejaVuSans-30" d="M 2034 4250 
Q 1547 4250 1301 3770 
Q 1056 3291 1056 2328 
Q 1056 1369 1301 889 
Q 1547 409 2034 409 
Q 2525 409 2770 889 
Q 3016 1369 3016 2328 
Q 3016 3291 2770 3770 
Q 2525 4250 2034 4250 
z
M 2034 4750 
Q 2819 4750 3233 4129 
Q 3647 3509 3647 2328 
Q 3647 1150 3233 529 
Q 2819 -91 2034 -91 
Q 1250 -91 836 529 
Q 422 1150 422 2328 
Q 422 3509 836 4129 
Q 1250 4750 2034 4750 
z
" transform="scale(0.015625)"/>
       </defs>
       <use xlink:href="#DejaVuSans-32"/>
       <use xlink:href="#DejaVuSans-30" x="63.623047"/>
      </g>
     </g>
    </g>
    <g id="xtick_2">
     <g id="line2d_2">
      <g>
       <use xlink:href="#m71f8b1d3dd" x="157.123392" y="318.04" style="stroke: #000000; stroke-width: 0.8"/>
      </g>
     </g>
     <g id="text_2">
      <!-- 30 -->
      <g transform="translate(150.760892 332.638438) scale(0.1 -0.1)">
       <defs>
        <path id="DejaVuSans-33" d="M 2597 2516 
Q 3050 2419 3304 2112 
Q 3559 1806 3559 1356 
Q 3559 666 3084 287 
Q 2609 -91 1734 -91 
Q 1441 -91 1130 -33 
Q 819 25 488 141 
L 488 750 
Q 750 597 1062 519 
Q 1375 441 1716 441 
Q 2309 441 2620 675 
Q 2931 909 2931 1356 
Q 2931 1769 2642 2001 
Q 2353 2234 1838 2234 
L 1294 2234 
L 1294 2753 
L 1863 2753 
Q 2328 2753 2575 2939 
Q 2822 3125 2822 3475 
Q 2822 3834 2567 4026 
Q 2313 4219 1838 4219 
Q 1578 4219 1281 4162 
Q 984 4106 628 3988 
L 628 4550 
Q 988 4650 1302 4700 
Q 1616 4750 1894 4750 
Q 2613 4750 3031 4423 
Q 3450 4097 3450 3541 
Q 3450 3153 3228 2886 
Q 3006 2619 2597 2516 
z
" transform="scale(0.015625)"/>
       </defs>
       <use xlink:href="#DejaVuSans-33"/>
       <use xlink:href="#DejaVuSans-30" x="63.623047"/>
      </g>
     </g>
    </g>
    <g id="xtick_3">
     <g id="line2d_3">
      <g>
       <use xlink:href="#m71f8b1d3dd" x="236.176235" y="318.04" style="stroke: #000000; stroke-width: 0.8"/>
      </g>
     </g>
     <g id="text_3">
      <!-- 40 -->
      <g transform="translate(229.813735 332.638438) scale(0.1 -0.1)">
       <defs>
        <path id="DejaVuSans-34" d="M 2419 4116 
L 825 1625 
L 2419 1625 
L 2419 4116 
z
M 2253 4666 
L 3047 4666 
L 3047 1625 
L 3713 1625 
L 3713 1100 
L 3047 1100 
L 3047 0 
L 2419 0 
L 2419 1100 
L 313 1100 
L 313 1709 
L 2253 4666 
z
" transform="scale(0.015625)"/>
       </defs>
       <use xlink:href="#DejaVuSans-34"/>
       <use xlink:href="#DejaVuSans-30" x="63.623047"/>
      </g>
     </g>
    </g>
    <g id="xtick_4">
     <g id="line2d_4">
      <g>
       <use xlink:href="#m71f8b1d3dd" x="315.229078" y="318.04" style="stroke: #000000; stroke-width: 0.8"/>
      </g>
     </g>
     <g id="text_4">
      <!-- 50 -->
      <g transform="translate(308.866578 332.638438) scale(0.1 -0.1)">
       <defs>
        <path id="DejaVuSans-35" d="M 691 4666 
L 3169 4666 
L 3169 4134 
L 1269 4134 
L 1269 2991 
Q 1406 3038 1543 3061 
Q 1681 3084 1819 3084 
Q 2600 3084 3056 2656 
Q 3513 2228 3513 1497 
Q 3513 744 3044 326 
Q 2575 -91 1722 -91 
Q 1428 -91 1123 -41 
Q 819 9 494 109 
L 494 744 
Q 775 591 1075 516 
Q 1375 441 1709 441 
Q 2250 441 2565 725 
Q 2881 1009 2881 1497 
Q 2881 1984 2565 2268 
Q 2250 2553 1709 2553 
Q 1456 2553 1204 2497 
Q 953 2441 691 2322 
L 691 4666 
z
" transform="scale(0.015625)"/>
       </defs>
       <use xlink:href="#DejaVuSans-35"/>
       <use xlink:href="#DejaVuSans-30" x="63.623047"/>
      </g>
     </g>
    </g>
    <g id="xtick_5">
     <g id="line2d_5">
      <g>
       <use xlink:href="#m71f8b1d3dd" x="394.281921" y="318.04" style="stroke: #000000; stroke-width: 0.8"/>
      </g>
     </g>
     <g id="text_5">
      <!-- 60 -->
      <g transform="translate(387.919421 332.638438) scale(0.1 -0.1)">
       <defs>
        <path id="DejaVuSans-36" d="M 2113 2584 
Q 1688 2584 1439 2293 
Q 1191 2003 1191 1497 
Q 1191 994 1439 701 
Q 1688 409 2113 409 
Q 2538 409 2786 701 
Q 3034 994 3034 1497 
Q 3034 2003 2786 2293 
Q 2538 2584 2113 2584 
z
M 3366 4563 
L 3366 3988 
Q 3128 4100 2886 4159 
Q 2644 4219 2406 4219 
Q 1781 4219 1451 3797 
Q 1122 3375 1075 2522 
Q 1259 2794 1537 2939 
Q 1816 3084 2150 3084 
Q 2853 3084 3261 2657 
Q 3669 2231 3669 1497 
Q 3669 778 3244 343 
Q 2819 -91 2113 -91 
Q 1303 -91 875 529 
Q 447 1150 447 2328 
Q 447 3434 972 4092 
Q 1497 4750 2381 4750 
Q 2619 4750 2861 4703 
Q 3103 4656 3366 4563 
z
" transform="scale(0.015625)"/>
       </defs>
       <use xlink:href="#DejaVuSans-36"/>
       <use xlink:href="#DejaVuSans-30" x="63.623047"/>
      </g>
     </g>
    </g>
    <g id="text_6">
     <!-- Age -->
     <g transform="translate(238.363068 346.316563) scale(0.1 -0.1)">
      <defs>
       <path id="DejaVuSans-41" d="M 2188 4044 
L 1331 1722 
L 3047 1722 
L 2188 4044 
z
M 1831 4666 
L 2547 4666 
L 4325 0 
L 3669 0 
L 3244 1197 
L 1141 1197 
L 716 0 
L 50 0 
L 1831 4666 
z
" transform="scale(0.015625)"/>
       <path id="DejaVuSans-67" d="M 2906 1791 
Q 2906 2416 2648 2759 
Q 2391 3103 1925 3103 
Q 1463 3103 1205 2759 
Q 947 2416 947 1791 
Q 947 1169 1205 825 
Q 1463 481 1925 481 
Q 2391 481 2648 825 
Q 2906 1169 2906 1791 
z
M 3481 434 
Q 3481 -459 3084 -895 
Q 2688 -1331 1869 -1331 
Q 1566 -1331 1297 -1286 
Q 1028 -1241 775 -1147 
L 775 -588 
Q 1028 -725 1275 -790 
Q 1522 -856 1778 -856 
Q 2344 -856 2625 -561 
Q 2906 -266 2906 331 
L 2906 616 
Q 2728 306 2450 153 
Q 2172 0 1784 0 
Q 1141 0 747 490 
Q 353 981 353 1791 
Q 353 2603 747 3093 
Q 1141 3584 1784 3584 
Q 2172 3584 2450 3431 
Q 2728 3278 2906 2969 
L 2906 3500 
L 3481 3500 
L 3481 434 
z
" transform="scale(0.015625)"/>
       <path id="DejaVuSans-65" d="M 3597 1894 
L 3597 1613 
L 953 1613 
Q 991 1019 1311 708 
Q 1631 397 2203 397 
Q 2534 397 2845 478 
Q 3156 559 3463 722 
L 3463 178 
Q 3153 47 2828 -22 
Q 2503 -91 2169 -91 
Q 1331 -91 842 396 
Q 353 884 353 1716 
Q 353 2575 817 3079 
Q 1281 3584 2069 3584 
Q 2775 3584 3186 3129 
Q 3597 2675 3597 1894 
z
M 3022 2063 
Q 3016 2534 2758 2815 
Q 2500 3097 2075 3097 
Q 1594 3097 1305 2825 
Q 1016 2553 972 2059 
L 3022 2063 
z
" transform="scale(0.015625)"/>
      </defs>
      <use xlink:href="#DejaVuSans-41"/>
      <use xlink:href="#DejaVuSans-67" x="68.408203"/>
      <use xlink:href="#DejaVuSans-65" x="131.884766"/>
     </g>
    </g>
   </g>
   <g id="matplotlib.axis_2">
    <g id="ytick_1">
     <g id="line2d_6">
      <defs>
       <path id="m0c41e72d05" d="M 0 0 
L -3.5 0 
" style="stroke: #000000; stroke-width: 0.8"/>
      </defs>
      <g>
       <use xlink:href="#m0c41e72d05" x="69.77" y="304.805455" style="stroke: #000000; stroke-width: 0.8"/>
      </g>
     </g>
     <g id="text_7">
      <!-- 25000 -->
      <g transform="translate(30.9575 308.604673) scale(0.1 -0.1)">
       <use xlink:href="#DejaVuSans-32"/>
       <use xlink:href="#DejaVuSans-35" x="63.623047"/>
       <use xlink:href="#DejaVuSans-30" x="127.246094"/>
       <use xlink:href="#DejaVuSans-30" x="190.869141"/>
       <use xlink:href="#DejaVuSans-30" x="254.492188"/>
      </g>
     </g>
    </g>
    <g id="ytick_2">
     <g id="line2d_7">
      <g>
       <use xlink:href="#m0c41e72d05" x="69.77" y="269.342788" style="stroke: #000000; stroke-width: 0.8"/>
      </g>
     </g>
     <g id="text_8">
      <!-- 50000 -->
      <g transform="translate(30.9575 273.142006) scale(0.1 -0.1)">
       <use xlink:href="#DejaVuSans-35"/>
       <use xlink:href="#DejaVuSans-30" x="63.623047"/>
       <use xlink:href="#DejaVuSans-30" x="127.246094"/>
       <use xlink:href="#DejaVuSans-30" x="190.869141"/>
       <use xlink:href="#DejaVuSans-30" x="254.492188"/>
      </g>
     </g>
    </g>
    <g id="ytick_3">
     <g id="line2d_8">
      <g>
       <use xlink:href="#m0c41e72d05" x="69.77" y="233.880121" style="stroke: #000000; stroke-width: 0.8"/>
      </g>
     </g>
     <g id="text_9">
      <!-- 75000 -->
      <g transform="translate(30.9575 237.679339) scale(0.1 -0.1)">
       <defs>
        <path id="DejaVuSans-37" d="M 525 4666 
L 3525 4666 
L 3525 4397 
L 1831 0 
L 1172 0 
L 2766 4134 
L 525 4134 
L 525 4666 
z
" transform="scale(0.015625)"/>
       </defs>
       <use xlink:href="#DejaVuSans-37"/>
       <use xlink:href="#DejaVuSans-35" x="63.623047"/>
       <use xlink:href="#DejaVuSans-30" x="127.246094"/>
       <use xlink:href="#DejaVuSans-30" x="190.869141"/>
       <use xlink:href="#DejaVuSans-30" x="254.492188"/>
      </g>
     </g>
    </g>
    <g id="ytick_4">
     <g id="line2d_9">
      <g>
       <use xlink:href="#m0c41e72d05" x="69.77" y="198.417454" style="stroke: #000000; stroke-width: 0.8"/>
      </g>
     </g>
     <g id="text_10">
      <!-- 100000 -->
      <g transform="translate(24.595 202.216673) scale(0.1 -0.1)">
       <defs>
        <path id="DejaVuSans-31" d="M 794 531 
L 1825 531 
L 1825 4091 
L 703 3866 
L 703 4441 
L 1819 4666 
L 2450 4666 
L 2450 531 
L 3481 531 
L 3481 0 
L 794 0 
L 794 531 
z
" transform="scale(0.015625)"/>
       </defs>
       <use xlink:href="#DejaVuSans-31"/>
       <use xlink:href="#DejaVuSans-30" x="63.623047"/>
       <use xlink:href="#DejaVuSans-30" x="127.246094"/>
       <use xlink:href="#DejaVuSans-30" x="190.869141"/>
       <use xlink:href="#DejaVuSans-30" x="254.492188"/>
       <use xlink:href="#DejaVuSans-30" x="318.115234"/>
      </g>
     </g>
    </g>
    <g id="ytick_5">
     <g id="line2d_10">
      <g>
       <use xlink:href="#m0c41e72d05" x="69.77" y="162.954787" style="stroke: #000000; stroke-width: 0.8"/>
      </g>
     </g>
     <g id="text_11">
      <!-- 125000 -->
      <g transform="translate(24.595 166.754006) scale(0.1 -0.1)">
       <use xlink:href="#DejaVuSans-31"/>
       <use xlink:href="#DejaVuSans-32" x="63.623047"/>
       <use xlink:href="#DejaVuSans-35" x="127.246094"/>
       <use xlink:href="#DejaVuSans-30" x="190.869141"/>
       <use xlink:href="#DejaVuSans-30" x="254.492188"/>
       <use xlink:href="#DejaVuSans-30" x="318.115234"/>
      </g>
     </g>
    </g>
    <g id="ytick_6">
     <g id="line2d_11">
      <g>
       <use xlink:href="#m0c41e72d05" x="69.77" y="127.49212" style="stroke: #000000; stroke-width: 0.8"/>
      </g>
     </g>
     <g id="text_12">
      <!-- 150000 -->
      <g transform="translate(24.595 131.291339) scale(0.1 -0.1)">
       <use xlink:href="#DejaVuSans-31"/>
       <use xlink:href="#DejaVuSans-35" x="63.623047"/>
       <use xlink:href="#DejaVuSans-30" x="127.246094"/>
       <use xlink:href="#DejaVuSans-30" x="190.869141"/>
       <use xlink:href="#DejaVuSans-30" x="254.492188"/>
       <use xlink:href="#DejaVuSans-30" x="318.115234"/>
      </g>
     </g>
    </g>
    <g id="ytick_7">
     <g id="line2d_12">
      <g>
       <use xlink:href="#m0c41e72d05" x="69.77" y="92.029453" style="stroke: #000000; stroke-width: 0.8"/>
      </g>
     </g>
     <g id="text_13">
      <!-- 175000 -->
      <g transform="translate(24.595 95.828672) scale(0.1 -0.1)">
       <use xlink:href="#DejaVuSans-31"/>
       <use xlink:href="#DejaVuSans-37" x="63.623047"/>
       <use xlink:href="#DejaVuSans-35" x="127.246094"/>
       <use xlink:href="#DejaVuSans-30" x="190.869141"/>
       <use xlink:href="#DejaVuSans-30" x="254.492188"/>
       <use xlink:href="#DejaVuSans-30" x="318.115234"/>
      </g>
     </g>
    </g>
    <g id="ytick_8">
     <g id="line2d_13">
      <g>
       <use xlink:href="#m0c41e72d05" x="69.77" y="56.566786" style="stroke: #000000; stroke-width: 0.8"/>
      </g>
     </g>
     <g id="text_14">
      <!-- 200000 -->
      <g transform="translate(24.595 60.366005) scale(0.1 -0.1)">
       <use xlink:href="#DejaVuSans-32"/>
       <use xlink:href="#DejaVuSans-30" x="63.623047"/>
       <use xlink:href="#DejaVuSans-30" x="127.246094"/>
       <use xlink:href="#DejaVuSans-30" x="190.869141"/>
       <use xlink:href="#DejaVuSans-30" x="254.492188"/>
       <use xlink:href="#DejaVuSans-30" x="318.115234"/>
      </g>
     </g>
    </g>
    <g id="text_15">
     <!-- Salary -->
     <g transform="translate(18.515313 188.16625) rotate(-90) scale(0.1 -0.1)">
      <defs>
       <path id="DejaVuSans-53" d="M 3425 4513 
L 3425 3897 
Q 3066 4069 2747 4153 
Q 2428 4238 2131 4238 
Q 1616 4238 1336 4038 
Q 1056 3838 1056 3469 
Q 1056 3159 1242 3001 
Q 1428 2844 1947 2747 
L 2328 2669 
Q 3034 2534 3370 2195 
Q 3706 1856 3706 1288 
Q 3706 609 3251 259 
Q 2797 -91 1919 -91 
Q 1588 -91 1214 -16 
Q 841 59 441 206 
L 441 856 
Q 825 641 1194 531 
Q 1563 422 1919 422 
Q 2459 422 2753 634 
Q 3047 847 3047 1241 
Q 3047 1584 2836 1778 
Q 2625 1972 2144 2069 
L 1759 2144 
Q 1053 2284 737 2584 
Q 422 2884 422 3419 
Q 422 4038 858 4394 
Q 1294 4750 2059 4750 
Q 2388 4750 2728 4690 
Q 3069 4631 3425 4513 
z
" transform="scale(0.015625)"/>
       <path id="DejaVuSans-61" d="M 2194 1759 
Q 1497 1759 1228 1600 
Q 959 1441 959 1056 
Q 959 750 1161 570 
Q 1363 391 1709 391 
Q 2188 391 2477 730 
Q 2766 1069 2766 1631 
L 2766 1759 
L 2194 1759 
z
M 3341 1997 
L 3341 0 
L 2766 0 
L 2766 531 
Q 2569 213 2275 61 
Q 1981 -91 1556 -91 
Q 1019 -91 701 211 
Q 384 513 384 1019 
Q 384 1609 779 1909 
Q 1175 2209 1959 2209 
L 2766 2209 
L 2766 2266 
Q 2766 2663 2505 2880 
Q 2244 3097 1772 3097 
Q 1472 3097 1187 3025 
Q 903 2953 641 2809 
L 641 3341 
Q 956 3463 1253 3523 
Q 1550 3584 1831 3584 
Q 2591 3584 2966 3190 
Q 3341 2797 3341 1997 
z
" transform="scale(0.015625)"/>
       <path id="DejaVuSans-6c" d="M 603 4863 
L 1178 4863 
L 1178 0 
L 603 0 
L 603 4863 
z
" transform="scale(0.015625)"/>
       <path id="DejaVuSans-72" d="M 2631 2963 
Q 2534 3019 2420 3045 
Q 2306 3072 2169 3072 
Q 1681 3072 1420 2755 
Q 1159 2438 1159 1844 
L 1159 0 
L 581 0 
L 581 3500 
L 1159 3500 
L 1159 2956 
Q 1341 3275 1631 3429 
Q 1922 3584 2338 3584 
Q 2397 3584 2469 3576 
Q 2541 3569 2628 3553 
L 2631 2963 
z
" transform="scale(0.015625)"/>
       <path id="DejaVuSans-79" d="M 2059 -325 
Q 1816 -950 1584 -1140 
Q 1353 -1331 966 -1331 
L 506 -1331 
L 506 -850 
L 844 -850 
Q 1081 -850 1212 -737 
Q 1344 -625 1503 -206 
L 1606 56 
L 191 3500 
L 800 3500 
L 1894 763 
L 2988 3500 
L 3597 3500 
L 2059 -325 
z
" transform="scale(0.015625)"/>
      </defs>
      <use xlink:href="#DejaVuSans-53"/>
      <use xlink:href="#DejaVuSans-61" x="63.476562"/>
      <use xlink:href="#DejaVuSans-6c" x="124.755859"/>
      <use xlink:href="#DejaVuSans-61" x="152.539062"/>
      <use xlink:href="#DejaVuSans-72" x="213.818359"/>
      <use xlink:href="#DejaVuSans-79" x="254.931641"/>
     </g>
    </g>
   </g>
   <g id="line2d_14">
    <path d="M 93.881117 281.163677 
L 101.786401 262.539555 
L 109.691686 258.132697 
L 117.59697 246.1334 
L 125.502254 246.616665 
L 133.407539 243.084022 
L 141.312823 236.870941 
L 149.218107 224.652149 
L 157.123392 199.129465 
L 165.028676 190.787538 
L 172.93396 189.853425 
L 180.839245 191.057916 
L 188.744529 168.640369 
L 196.649813 181.563091 
L 204.555098 167.644664 
L 212.460382 157.483404 
L 220.365666 149.744849 
L 228.270951 172.487152 
L 236.176235 125.645067 
L 244.081519 123.340915 
L 251.986804 124.286112 
L 259.892088 112.238602 
L 267.797372 114.464555 
L 275.702657 106.357213 
L 283.607941 104.629502 
L 291.513225 91.879831 
L 299.418509 73.982187 
L 307.323794 75.02745 
L 315.229078 64.548487 
L 323.134362 61.071761 
L 331.039647 69.381704 
L 338.944931 73.690289 
L 346.850215 72.728306 
L 354.7555 59.420822 
L 362.660784 63.659319 
L 370.566068 61.295142 
L 378.471353 63.657428 
L 394.281921 63.659319 
L 402.187206 56.566786 
L 410.09249 56.566786 
" clip-path="url(#p5e29694bea)" style="fill: none; stroke: #0000ff; stroke-width: 1.5; stroke-linecap: square"/>
   </g>
   <g id="line2d_15">
    <path d="M 85.975833 304.805455 
L 93.881117 289.970712 
L 101.786401 278.028507 
L 109.691686 272.244272 
L 117.59697 265.91473 
L 125.502254 257.902354 
L 133.407539 239.306391 
L 141.312823 234.042865 
L 149.218107 231.795685 
L 157.123392 216.964606 
L 165.028676 212.871406 
L 172.93396 193.526572 
L 180.839245 180.95703 
L 188.744529 171.70916 
L 196.649813 161.824281 
L 204.555098 176.481363 
L 212.460382 162.407994 
L 220.365666 167.713056 
L 228.270951 161.276645 
L 236.176235 166.667762 
L 244.081519 145.664069 
L 251.986804 143.44737 
L 259.892088 128.959959 
L 267.797372 116.405394 
L 275.702657 111.807298 
L 283.607941 103.01797 
L 291.513225 92.029453 
L 299.418509 90.685225 
L 307.323794 92.257833 
L 315.229078 91.786348 
L 323.134362 90.425933 
L 331.039647 76.21003 
L 346.850215 69.122343 
L 354.7555 77.040093 
L 362.660784 51.350937 
L 370.566068 103.154328 
L 378.471353 63.659319 
L 394.281921 79.382757 
" clip-path="url(#p5e29694bea)" style="fill: none; stroke: #ff0000; stroke-width: 1.5; stroke-linecap: square"/>
   </g>
   <g id="line2d_16">
    <path d="M 101.786401 251.11214 
L 117.59697 242.345769 
L 165.028676 192.563277 
L 212.460382 111.331073 
L 338.944931 104.641396 
L 346.850215 115.278777 
" clip-path="url(#p5e29694bea)" style="fill: none; stroke: #008000; stroke-width: 1.5; stroke-linecap: square"/>
   </g>
   <g id="line2d_17"/>
   <g id="line2d_18"/>
   <g id="line2d_19"/>
   <g id="patch_3">
    <path d="M 69.77 318.04 
L 69.77 26.88 
" style="fill: none; stroke: #000000; stroke-width: 0.8; stroke-linejoin: miter; stroke-linecap: square"/>
   </g>
   <g id="patch_4">
    <path d="M 426.298323 318.04 
L 426.298323 26.88 
" style="fill: none; stroke: #000000; stroke-width: 0.8; stroke-linejoin: miter; stroke-linecap: square"/>
   </g>
   <g id="patch_5">
    <path d="M 69.77 318.04 
L 426.298323 318.04 
" style="fill: none; stroke: #000000; stroke-width: 0.8; stroke-linejoin: miter; stroke-linecap: square"/>
   </g>
   <g id="patch_6">
    <path d="M 69.77 26.88 
L 426.298323 26.88 
" style="fill: none; stroke: #000000; stroke-width: 0.8; stroke-linejoin: miter; stroke-linecap: square"/>
   </g>
   <g id="text_16">
    <!-- Age vs. Salary -->
    <g transform="translate(205.183849 20.88) scale(0.12 -0.12)">
     <defs>
      <path id="DejaVuSans-20" transform="scale(0.015625)"/>
      <path id="DejaVuSans-76" d="M 191 3500 
L 800 3500 
L 1894 563 
L 2988 3500 
L 3597 3500 
L 2284 0 
L 1503 0 
L 191 3500 
z
" transform="scale(0.015625)"/>
      <path id="DejaVuSans-73" d="M 2834 3397 
L 2834 2853 
Q 2591 2978 2328 3040 
Q 2066 3103 1784 3103 
Q 1356 3103 1142 2972 
Q 928 2841 928 2578 
Q 928 2378 1081 2264 
Q 1234 2150 1697 2047 
L 1894 2003 
Q 2506 1872 2764 1633 
Q 3022 1394 3022 966 
Q 3022 478 2636 193 
Q 2250 -91 1575 -91 
Q 1294 -91 989 -36 
Q 684 19 347 128 
L 347 722 
Q 666 556 975 473 
Q 1284 391 1588 391 
Q 1994 391 2212 530 
Q 2431 669 2431 922 
Q 2431 1156 2273 1281 
Q 2116 1406 1581 1522 
L 1381 1569 
Q 847 1681 609 1914 
Q 372 2147 372 2553 
Q 372 3047 722 3315 
Q 1072 3584 1716 3584 
Q 2034 3584 2315 3537 
Q 2597 3491 2834 3397 
z
" transform="scale(0.015625)"/>
      <path id="DejaVuSans-2e" d="M 684 794 
L 1344 794 
L 1344 0 
L 684 0 
L 684 794 
z
" transform="scale(0.015625)"/>
     </defs>
     <use xlink:href="#DejaVuSans-41"/>
     <use xlink:href="#DejaVuSans-67" x="68.408203"/>
     <use xlink:href="#DejaVuSans-65" x="131.884766"/>
     <use xlink:href="#DejaVuSans-20" x="193.408203"/>
     <use xlink:href="#DejaVuSans-76" x="225.195312"/>
     <use xlink:href="#DejaVuSans-73" x="284.375"/>
     <use xlink:href="#DejaVuSans-2e" x="336.474609"/>
     <use xlink:href="#DejaVuSans-20" x="368.261719"/>
     <use xlink:href="#DejaVuSans-53" x="400.048828"/>
     <use xlink:href="#DejaVuSans-61" x="463.525391"/>
     <use xlink:href="#DejaVuSans-6c" x="524.804688"/>
     <use xlink:href="#DejaVuSans-61" x="552.587891"/>
     <use xlink:href="#DejaVuSans-72" x="613.867188"/>
     <use xlink:href="#DejaVuSans-79" x="654.980469"/>
    </g>
   </g>
   <g id="legend_1">
    <g id="patch_7">
     <path d="M 76.77 93.5925 
L 144.924688 93.5925 
Q 146.924688 93.5925 146.924688 91.5925 
L 146.924688 33.88 
Q 146.924688 31.88 144.924688 31.88 
L 76.77 31.88 
Q 74.77 31.88 74.77 33.88 
L 74.77 91.5925 
Q 74.77 93.5925 76.77 93.5925 
z
" style="fill: #ffffff; opacity: 0.8; stroke: #cccccc; stroke-linejoin: miter"/>
    </g>
    <g id="text_17">
     <!-- Gender -->
     <g transform="translate(92.421563 43.478437) scale(0.1 -0.1)">
      <defs>
       <path id="DejaVuSans-47" d="M 3809 666 
L 3809 1919 
L 2778 1919 
L 2778 2438 
L 4434 2438 
L 4434 434 
Q 4069 175 3628 42 
Q 3188 -91 2688 -91 
Q 1594 -91 976 548 
Q 359 1188 359 2328 
Q 359 3472 976 4111 
Q 1594 4750 2688 4750 
Q 3144 4750 3555 4637 
Q 3966 4525 4313 4306 
L 4313 3634 
Q 3963 3931 3569 4081 
Q 3175 4231 2741 4231 
Q 1884 4231 1454 3753 
Q 1025 3275 1025 2328 
Q 1025 1384 1454 906 
Q 1884 428 2741 428 
Q 3075 428 3337 486 
Q 3600 544 3809 666 
z
" transform="scale(0.015625)"/>
       <path id="DejaVuSans-6e" d="M 3513 2113 
L 3513 0 
L 2938 0 
L 2938 2094 
Q 2938 2591 2744 2837 
Q 2550 3084 2163 3084 
Q 1697 3084 1428 2787 
Q 1159 2491 1159 1978 
L 1159 0 
L 581 0 
L 581 3500 
L 1159 3500 
L 1159 2956 
Q 1366 3272 1645 3428 
Q 1925 3584 2291 3584 
Q 2894 3584 3203 3211 
Q 3513 2838 3513 2113 
z
" transform="scale(0.015625)"/>
       <path id="DejaVuSans-64" d="M 2906 2969 
L 2906 4863 
L 3481 4863 
L 3481 0 
L 2906 0 
L 2906 525 
Q 2725 213 2448 61 
Q 2172 -91 1784 -91 
Q 1150 -91 751 415 
Q 353 922 353 1747 
Q 353 2572 751 3078 
Q 1150 3584 1784 3584 
Q 2172 3584 2448 3432 
Q 2725 3281 2906 2969 
z
M 947 1747 
Q 947 1113 1208 752 
Q 1469 391 1925 391 
Q 2381 391 2643 752 
Q 2906 1113 2906 1747 
Q 2906 2381 2643 2742 
Q 2381 3103 1925 3103 
Q 1469 3103 1208 2742 
Q 947 2381 947 1747 
z
" transform="scale(0.015625)"/>
      </defs>
      <use xlink:href="#DejaVuSans-47"/>
      <use xlink:href="#DejaVuSans-65" x="77.490234"/>
      <use xlink:href="#DejaVuSans-6e" x="139.013672"/>
      <use xlink:href="#DejaVuSans-64" x="202.392578"/>
      <use xlink:href="#DejaVuSans-65" x="265.869141"/>
      <use xlink:href="#DejaVuSans-72" x="327.392578"/>
     </g>
    </g>
    <g id="line2d_20">
     <path d="M 78.77 54.656563 
L 88.77 54.656563 
L 98.77 54.656563 
" style="fill: none; stroke: #0000ff; stroke-width: 1.5; stroke-linecap: square"/>
    </g>
    <g id="text_18">
     <!-- Male -->
     <g transform="translate(106.77 58.156563) scale(0.1 -0.1)">
      <defs>
       <path id="DejaVuSans-4d" d="M 628 4666 
L 1569 4666 
L 2759 1491 
L 3956 4666 
L 4897 4666 
L 4897 0 
L 4281 0 
L 4281 4097 
L 3078 897 
L 2444 897 
L 1241 4097 
L 1241 0 
L 628 0 
L 628 4666 
z
" transform="scale(0.015625)"/>
      </defs>
      <use xlink:href="#DejaVuSans-4d"/>
      <use xlink:href="#DejaVuSans-61" x="86.279297"/>
      <use xlink:href="#DejaVuSans-6c" x="147.558594"/>
      <use xlink:href="#DejaVuSans-65" x="175.341797"/>
     </g>
    </g>
    <g id="line2d_21">
     <path d="M 78.77 69.334688 
L 88.77 69.334688 
L 98.77 69.334688 
" style="fill: none; stroke: #ff0000; stroke-width: 1.5; stroke-linecap: square"/>
    </g>
    <g id="text_19">
     <!-- Female -->
     <g transform="translate(106.77 72.834688) scale(0.1 -0.1)">
      <defs>
       <path id="DejaVuSans-46" d="M 628 4666 
L 3309 4666 
L 3309 4134 
L 1259 4134 
L 1259 2759 
L 3109 2759 
L 3109 2228 
L 1259 2228 
L 1259 0 
L 628 0 
L 628 4666 
z
" transform="scale(0.015625)"/>
       <path id="DejaVuSans-6d" d="M 3328 2828 
Q 3544 3216 3844 3400 
Q 4144 3584 4550 3584 
Q 5097 3584 5394 3201 
Q 5691 2819 5691 2113 
L 5691 0 
L 5113 0 
L 5113 2094 
Q 5113 2597 4934 2840 
Q 4756 3084 4391 3084 
Q 3944 3084 3684 2787 
Q 3425 2491 3425 1978 
L 3425 0 
L 2847 0 
L 2847 2094 
Q 2847 2600 2669 2842 
Q 2491 3084 2119 3084 
Q 1678 3084 1418 2786 
Q 1159 2488 1159 1978 
L 1159 0 
L 581 0 
L 581 3500 
L 1159 3500 
L 1159 2956 
Q 1356 3278 1631 3431 
Q 1906 3584 2284 3584 
Q 2666 3584 2933 3390 
Q 3200 3197 3328 2828 
z
" transform="scale(0.015625)"/>
      </defs>
      <use xlink:href="#DejaVuSans-46"/>
      <use xlink:href="#DejaVuSans-65" x="52.019531"/>
      <use xlink:href="#DejaVuSans-6d" x="113.542969"/>
      <use xlink:href="#DejaVuSans-61" x="210.955078"/>
      <use xlink:href="#DejaVuSans-6c" x="272.234375"/>
      <use xlink:href="#DejaVuSans-65" x="300.017578"/>
     </g>
    </g>
    <g id="line2d_22">
     <path d="M 78.77 84.012812 
L 88.77 84.012812 
L 98.77 84.012812 
" style="fill: none; stroke: #008000; stroke-width: 1.5; stroke-linecap: square"/>
    </g>
    <g id="text_20">
     <!-- Other -->
     <g transform="translate(106.77 87.512812) scale(0.1 -0.1)">
      <defs>
       <path id="DejaVuSans-4f" d="M 2522 4238 
Q 1834 4238 1429 3725 
Q 1025 3213 1025 2328 
Q 1025 1447 1429 934 
Q 1834 422 2522 422 
Q 3209 422 3611 934 
Q 4013 1447 4013 2328 
Q 4013 3213 3611 3725 
Q 3209 4238 2522 4238 
z
M 2522 4750 
Q 3503 4750 4090 4092 
Q 4678 3434 4678 2328 
Q 4678 1225 4090 567 
Q 3503 -91 2522 -91 
Q 1538 -91 948 565 
Q 359 1222 359 2328 
Q 359 3434 948 4092 
Q 1538 4750 2522 4750 
z
" transform="scale(0.015625)"/>
       <path id="DejaVuSans-74" d="M 1172 4494 
L 1172 3500 
L 2356 3500 
L 2356 3053 
L 1172 3053 
L 1172 1153 
Q 1172 725 1289 603 
Q 1406 481 1766 481 
L 2356 481 
L 2356 0 
L 1766 0 
Q 1100 0 847 248 
Q 594 497 594 1153 
L 594 3053 
L 172 3053 
L 172 3500 
L 594 3500 
L 594 4494 
L 1172 4494 
z
" transform="scale(0.015625)"/>
       <path id="DejaVuSans-68" d="M 3513 2113 
L 3513 0 
L 2938 0 
L 2938 2094 
Q 2938 2591 2744 2837 
Q 2550 3084 2163 3084 
Q 1697 3084 1428 2787 
Q 1159 2491 1159 1978 
L 1159 0 
L 581 0 
L 581 4863 
L 1159 4863 
L 1159 2956 
Q 1366 3272 1645 3428 
Q 1925 3584 2291 3584 
Q 2894 3584 3203 3211 
Q 3513 2838 3513 2113 
z
" transform="scale(0.015625)"/>
      </defs>
      <use xlink:href="#DejaVuSans-4f"/>
      <use xlink:href="#DejaVuSans-74" x="78.710938"/>
      <use xlink:href="#DejaVuSans-68" x="117.919922"/>
      <use xlink:href="#DejaVuSans-65" x="181.298828"/>
      <use xlink:href="#DejaVuSans-72" x="242.822266"/>
     </g>
    </g>
   </g>
  </g>
  <g id="axes_2">
   <g id="patch_8">
    <path d="M 496.068323 318.04 
L 852.596646 318.04 
L 852.596646 26.88 
L 496.068323 26.88 
z
" style="fill: #ffffff"/>
   </g>
   <g id="PolyCollection_4">
    <path d="M 512.274156 276.285431 
L 512.274156 299.632105 
L 521.806999 284.129946 
L 526.57342 297.306932 
L 531.339841 275.836918 
L 540.872684 259.563823 
L 550.405527 246.534793 
L 559.93837 231.295881 
L 569.471213 214.121583 
L 579.004056 201.844698 
L 588.536898 194.808112 
L 598.069741 180.624395 
L 607.602584 181.616679 
L 617.135427 172.801399 
L 626.66827 153.660048 
L 636.201113 152.105979 
L 645.733956 144.152027 
L 655.266798 133.560174 
L 664.799641 127.582423 
L 674.332484 123.79512 
L 683.865327 116.3804 
L 693.39817 117.598561 
L 702.931013 128.910834 
L 712.463856 117.900499 
L 721.996698 112.077647 
L 731.529541 107.879981 
L 741.062384 107.514022 
L 750.595227 111.056496 
L 760.12807 95.444487 
L 769.660913 95.771976 
L 779.193756 94.532367 
L 779.193756 87.32593 
L 779.193756 87.32593 
L 769.660913 88.739716 
L 760.12807 86.312923 
L 750.595227 68.999103 
L 741.062384 40.114545 
L 731.529541 71.13264 
L 721.996698 84.398239 
L 712.463856 89.863598 
L 702.931013 98.144132 
L 693.39817 99.42058 
L 683.865327 92.906592 
L 674.332484 97.668836 
L 664.799641 108.795996 
L 655.266798 115.668717 
L 645.733956 121.714886 
L 636.201113 133.295621 
L 626.66827 131.886623 
L 617.135427 147.444062 
L 607.602584 158.375071 
L 598.069741 159.096645 
L 588.536898 173.655503 
L 579.004056 180.834383 
L 569.471213 195.37469 
L 559.93837 203.579444 
L 550.405527 230.625662 
L 540.872684 245.968964 
L 531.339841 262.690409 
L 526.57342 292.270699 
L 521.806999 269.490532 
L 512.274156 276.285431 
z
" clip-path="url(#p7257b0fcd7)" style="fill: #0000ff; fill-opacity: 0.2; stroke: #0000ff; stroke-opacity: 0.2"/>
    <path d="M 798.259441 94.083495 
L 798.259441 96.314211 
L 798.259441 94.083495 
L 798.259441 94.083495 
z
" clip-path="url(#p7257b0fcd7)" style="fill: #0000ff; fill-opacity: 0.2; stroke: #0000ff; stroke-opacity: 0.2"/>
   </g>
   <g id="PolyCollection_5">
    <path d="M 512.274156 289.825677 
L 512.274156 304.805455 
L 512.274156 289.825677 
L 512.274156 289.825677 
z
" clip-path="url(#p7257b0fcd7)" style="fill: #ff0000; fill-opacity: 0.2; stroke: #ff0000; stroke-opacity: 0.2"/>
    <path d="M 521.806999 286.306062 
L 521.806999 294.88534 
L 526.57342 292.83028 
L 531.339841 279.042804 
L 540.872684 265.81386 
L 550.405527 249.522814 
L 559.93837 230.743621 
L 569.471213 205.651847 
L 579.004056 213.749996 
L 588.536898 209.417362 
L 598.069741 188.723548 
L 607.602584 199.305401 
L 617.135427 163.464833 
L 626.66827 171.360674 
L 636.201113 171.071338 
L 645.733956 152.060628 
L 655.266798 170.083324 
L 664.799641 125.443489 
L 674.332484 159.649883 
L 683.865327 135.927167 
L 693.39817 133.219588 
L 702.931013 124.056746 
L 712.463856 116.345534 
L 721.996698 136.953126 
L 731.529541 112.638822 
L 741.062384 97.19253 
L 750.595227 121.484618 
L 750.595227 97.77248 
L 750.595227 97.77248 
L 741.062384 85.441318 
L 731.529541 100.537605 
L 721.996698 106.482299 
L 712.463856 102.262103 
L 702.931013 86.208303 
L 693.39817 98.237213 
L 683.865327 112.552687 
L 674.332484 93.619266 
L 664.799641 98.783897 
L 655.266798 133.039394 
L 645.733956 126.876199 
L 636.201113 147.084615 
L 626.66827 144.446044 
L 617.135427 133.882329 
L 607.602584 169.652613 
L 598.069741 161.772583 
L 588.536898 186.240545 
L 579.004056 191.522112 
L 569.471213 181.972933 
L 559.93837 212.855175 
L 550.405527 228.782038 
L 540.872684 249.21277 
L 531.339841 266.637708 
L 526.57342 282.729834 
L 521.806999 286.306062 
z
" clip-path="url(#p7257b0fcd7)" style="fill: #ff0000; fill-opacity: 0.2; stroke: #ff0000; stroke-opacity: 0.2"/>
    <path d="M 788.726598 82.725781 
L 788.726598 88.413368 
L 798.259441 181.204963 
L 807.792284 86.701048 
L 817.325127 87.441039 
L 826.85797 103.673827 
L 826.85797 86.738652 
L 826.85797 86.738652 
L 817.325127 87.114691 
L 807.792284 79.266225 
L 798.259441 98.35825 
L 788.726598 82.725781 
z
" clip-path="url(#p7257b0fcd7)" style="fill: #ff0000; fill-opacity: 0.2; stroke: #ff0000; stroke-opacity: 0.2"/>
   </g>
   <g id="PolyCollection_6">
    <path d="M 531.339841 251.602106 
L 531.339841 259.901819 
L 531.339841 251.602106 
L 531.339841 251.602106 
z
" clip-path="url(#p7257b0fcd7)" style="fill: #008000; fill-opacity: 0.2; stroke: #008000; stroke-opacity: 0.2"/>
    <path d="M 788.726598 130.82114 
L 788.726598 131.777353 
L 788.726598 130.82114 
L 788.726598 130.82114 
z
" clip-path="url(#p7257b0fcd7)" style="fill: #008000; fill-opacity: 0.2; stroke: #008000; stroke-opacity: 0.2"/>
   </g>
   <g id="matplotlib.axis_3">
    <g id="xtick_6">
     <g id="line2d_23">
      <g>
       <use xlink:href="#m71f8b1d3dd" x="512.274156" y="318.04" style="stroke: #000000; stroke-width: 0.8"/>
      </g>
     </g>
     <g id="text_21">
      <!-- 0 -->
      <g transform="translate(509.092906 332.638438) scale(0.1 -0.1)">
       <use xlink:href="#DejaVuSans-30"/>
      </g>
     </g>
    </g>
    <g id="xtick_7">
     <g id="line2d_24">
      <g>
       <use xlink:href="#m71f8b1d3dd" x="559.93837" y="318.04" style="stroke: #000000; stroke-width: 0.8"/>
      </g>
     </g>
     <g id="text_22">
      <!-- 5 -->
      <g transform="translate(556.75712 332.638438) scale(0.1 -0.1)">
       <use xlink:href="#DejaVuSans-35"/>
      </g>
     </g>
    </g>
    <g id="xtick_8">
     <g id="line2d_25">
      <g>
       <use xlink:href="#m71f8b1d3dd" x="607.602584" y="318.04" style="stroke: #000000; stroke-width: 0.8"/>
      </g>
     </g>
     <g id="text_23">
      <!-- 10 -->
      <g transform="translate(601.240084 332.638438) scale(0.1 -0.1)">
       <use xlink:href="#DejaVuSans-31"/>
       <use xlink:href="#DejaVuSans-30" x="63.623047"/>
      </g>
     </g>
    </g>
    <g id="xtick_9">
     <g id="line2d_26">
      <g>
       <use xlink:href="#m71f8b1d3dd" x="655.266798" y="318.04" style="stroke: #000000; stroke-width: 0.8"/>
      </g>
     </g>
     <g id="text_24">
      <!-- 15 -->
      <g transform="translate(648.904298 332.638438) scale(0.1 -0.1)">
       <use xlink:href="#DejaVuSans-31"/>
       <use xlink:href="#DejaVuSans-35" x="63.623047"/>
      </g>
     </g>
    </g>
    <g id="xtick_10">
     <g id="line2d_27">
      <g>
       <use xlink:href="#m71f8b1d3dd" x="702.931013" y="318.04" style="stroke: #000000; stroke-width: 0.8"/>
      </g>
     </g>
     <g id="text_25">
      <!-- 20 -->
      <g transform="translate(696.568513 332.638438) scale(0.1 -0.1)">
       <use xlink:href="#DejaVuSans-32"/>
       <use xlink:href="#DejaVuSans-30" x="63.623047"/>
      </g>
     </g>
    </g>
    <g id="xtick_11">
     <g id="line2d_28">
      <g>
       <use xlink:href="#m71f8b1d3dd" x="750.595227" y="318.04" style="stroke: #000000; stroke-width: 0.8"/>
      </g>
     </g>
     <g id="text_26">
      <!-- 25 -->
      <g transform="translate(744.232727 332.638438) scale(0.1 -0.1)">
       <use xlink:href="#DejaVuSans-32"/>
       <use xlink:href="#DejaVuSans-35" x="63.623047"/>
      </g>
     </g>
    </g>
    <g id="xtick_12">
     <g id="line2d_29">
      <g>
       <use xlink:href="#m71f8b1d3dd" x="798.259441" y="318.04" style="stroke: #000000; stroke-width: 0.8"/>
      </g>
     </g>
     <g id="text_27">
      <!-- 30 -->
      <g transform="translate(791.896941 332.638438) scale(0.1 -0.1)">
       <use xlink:href="#DejaVuSans-33"/>
       <use xlink:href="#DejaVuSans-30" x="63.623047"/>
      </g>
     </g>
    </g>
    <g id="xtick_13">
     <g id="line2d_30">
      <g>
       <use xlink:href="#m71f8b1d3dd" x="845.923656" y="318.04" style="stroke: #000000; stroke-width: 0.8"/>
      </g>
     </g>
     <g id="text_28">
      <!-- 35 -->
      <g transform="translate(839.561156 332.638438) scale(0.1 -0.1)">
       <use xlink:href="#DejaVuSans-33"/>
       <use xlink:href="#DejaVuSans-35" x="63.623047"/>
      </g>
     </g>
    </g>
    <g id="text_29">
     <!-- Years of Experience -->
     <g transform="translate(625.257484 346.316563) scale(0.1 -0.1)">
      <defs>
       <path id="DejaVuSans-59" d="M -13 4666 
L 666 4666 
L 1959 2747 
L 3244 4666 
L 3922 4666 
L 2272 2222 
L 2272 0 
L 1638 0 
L 1638 2222 
L -13 4666 
z
" transform="scale(0.015625)"/>
       <path id="DejaVuSans-6f" d="M 1959 3097 
Q 1497 3097 1228 2736 
Q 959 2375 959 1747 
Q 959 1119 1226 758 
Q 1494 397 1959 397 
Q 2419 397 2687 759 
Q 2956 1122 2956 1747 
Q 2956 2369 2687 2733 
Q 2419 3097 1959 3097 
z
M 1959 3584 
Q 2709 3584 3137 3096 
Q 3566 2609 3566 1747 
Q 3566 888 3137 398 
Q 2709 -91 1959 -91 
Q 1206 -91 779 398 
Q 353 888 353 1747 
Q 353 2609 779 3096 
Q 1206 3584 1959 3584 
z
" transform="scale(0.015625)"/>
       <path id="DejaVuSans-66" d="M 2375 4863 
L 2375 4384 
L 1825 4384 
Q 1516 4384 1395 4259 
Q 1275 4134 1275 3809 
L 1275 3500 
L 2222 3500 
L 2222 3053 
L 1275 3053 
L 1275 0 
L 697 0 
L 697 3053 
L 147 3053 
L 147 3500 
L 697 3500 
L 697 3744 
Q 697 4328 969 4595 
Q 1241 4863 1831 4863 
L 2375 4863 
z
" transform="scale(0.015625)"/>
       <path id="DejaVuSans-45" d="M 628 4666 
L 3578 4666 
L 3578 4134 
L 1259 4134 
L 1259 2753 
L 3481 2753 
L 3481 2222 
L 1259 2222 
L 1259 531 
L 3634 531 
L 3634 0 
L 628 0 
L 628 4666 
z
" transform="scale(0.015625)"/>
       <path id="DejaVuSans-78" d="M 3513 3500 
L 2247 1797 
L 3578 0 
L 2900 0 
L 1881 1375 
L 863 0 
L 184 0 
L 1544 1831 
L 300 3500 
L 978 3500 
L 1906 2253 
L 2834 3500 
L 3513 3500 
z
" transform="scale(0.015625)"/>
       <path id="DejaVuSans-70" d="M 1159 525 
L 1159 -1331 
L 581 -1331 
L 581 3500 
L 1159 3500 
L 1159 2969 
Q 1341 3281 1617 3432 
Q 1894 3584 2278 3584 
Q 2916 3584 3314 3078 
Q 3713 2572 3713 1747 
Q 3713 922 3314 415 
Q 2916 -91 2278 -91 
Q 1894 -91 1617 61 
Q 1341 213 1159 525 
z
M 3116 1747 
Q 3116 2381 2855 2742 
Q 2594 3103 2138 3103 
Q 1681 3103 1420 2742 
Q 1159 2381 1159 1747 
Q 1159 1113 1420 752 
Q 1681 391 2138 391 
Q 2594 391 2855 752 
Q 3116 1113 3116 1747 
z
" transform="scale(0.015625)"/>
       <path id="DejaVuSans-69" d="M 603 3500 
L 1178 3500 
L 1178 0 
L 603 0 
L 603 3500 
z
M 603 4863 
L 1178 4863 
L 1178 4134 
L 603 4134 
L 603 4863 
z
" transform="scale(0.015625)"/>
       <path id="DejaVuSans-63" d="M 3122 3366 
L 3122 2828 
Q 2878 2963 2633 3030 
Q 2388 3097 2138 3097 
Q 1578 3097 1268 2742 
Q 959 2388 959 1747 
Q 959 1106 1268 751 
Q 1578 397 2138 397 
Q 2388 397 2633 464 
Q 2878 531 3122 666 
L 3122 134 
Q 2881 22 2623 -34 
Q 2366 -91 2075 -91 
Q 1284 -91 818 406 
Q 353 903 353 1747 
Q 353 2603 823 3093 
Q 1294 3584 2113 3584 
Q 2378 3584 2631 3529 
Q 2884 3475 3122 3366 
z
" transform="scale(0.015625)"/>
      </defs>
      <use xlink:href="#DejaVuSans-59"/>
      <use xlink:href="#DejaVuSans-65" x="47.833984"/>
      <use xlink:href="#DejaVuSans-61" x="109.357422"/>
      <use xlink:href="#DejaVuSans-72" x="170.636719"/>
      <use xlink:href="#DejaVuSans-73" x="211.75"/>
      <use xlink:href="#DejaVuSans-20" x="263.849609"/>
      <use xlink:href="#DejaVuSans-6f" x="295.636719"/>
      <use xlink:href="#DejaVuSans-66" x="356.818359"/>
      <use xlink:href="#DejaVuSans-20" x="392.023438"/>
      <use xlink:href="#DejaVuSans-45" x="423.810547"/>
      <use xlink:href="#DejaVuSans-78" x="486.994141"/>
      <use xlink:href="#DejaVuSans-70" x="546.173828"/>
      <use xlink:href="#DejaVuSans-65" x="609.650391"/>
      <use xlink:href="#DejaVuSans-72" x="671.173828"/>
      <use xlink:href="#DejaVuSans-69" x="712.287109"/>
      <use xlink:href="#DejaVuSans-65" x="740.070312"/>
      <use xlink:href="#DejaVuSans-6e" x="801.59375"/>
      <use xlink:href="#DejaVuSans-63" x="864.972656"/>
      <use xlink:href="#DejaVuSans-65" x="919.953125"/>
     </g>
    </g>
   </g>
   <g id="matplotlib.axis_4">
    <g id="ytick_9">
     <g id="line2d_31">
      <g>
       <use xlink:href="#m0c41e72d05" x="496.068323" y="310.736888" style="stroke: #000000; stroke-width: 0.8"/>
      </g>
     </g>
     <g id="text_30">
      <!-- 25000 -->
      <g transform="translate(457.255823 314.536107) scale(0.1 -0.1)">
       <use xlink:href="#DejaVuSans-32"/>
       <use xlink:href="#DejaVuSans-35" x="63.623047"/>
       <use xlink:href="#DejaVuSans-30" x="127.246094"/>
       <use xlink:href="#DejaVuSans-30" x="190.869141"/>
       <use xlink:href="#DejaVuSans-30" x="254.492188"/>
      </g>
     </g>
    </g>
    <g id="ytick_10">
     <g id="line2d_32">
      <g>
       <use xlink:href="#m0c41e72d05" x="496.068323" y="277.161998" style="stroke: #000000; stroke-width: 0.8"/>
      </g>
     </g>
     <g id="text_31">
      <!-- 50000 -->
      <g transform="translate(457.255823 280.961217) scale(0.1 -0.1)">
       <use xlink:href="#DejaVuSans-35"/>
       <use xlink:href="#DejaVuSans-30" x="63.623047"/>
       <use xlink:href="#DejaVuSans-30" x="127.246094"/>
       <use xlink:href="#DejaVuSans-30" x="190.869141"/>
       <use xlink:href="#DejaVuSans-30" x="254.492188"/>
      </g>
     </g>
    </g>
    <g id="ytick_11">
     <g id="line2d_33">
      <g>
       <use xlink:href="#m0c41e72d05" x="496.068323" y="243.587108" style="stroke: #000000; stroke-width: 0.8"/>
      </g>
     </g>
     <g id="text_32">
      <!-- 75000 -->
      <g transform="translate(457.255823 247.386327) scale(0.1 -0.1)">
       <use xlink:href="#DejaVuSans-37"/>
       <use xlink:href="#DejaVuSans-35" x="63.623047"/>
       <use xlink:href="#DejaVuSans-30" x="127.246094"/>
       <use xlink:href="#DejaVuSans-30" x="190.869141"/>
       <use xlink:href="#DejaVuSans-30" x="254.492188"/>
      </g>
     </g>
    </g>
    <g id="ytick_12">
     <g id="line2d_34">
      <g>
       <use xlink:href="#m0c41e72d05" x="496.068323" y="210.012218" style="stroke: #000000; stroke-width: 0.8"/>
      </g>
     </g>
     <g id="text_33">
      <!-- 100000 -->
      <g transform="translate(450.893323 213.811437) scale(0.1 -0.1)">
       <use xlink:href="#DejaVuSans-31"/>
       <use xlink:href="#DejaVuSans-30" x="63.623047"/>
       <use xlink:href="#DejaVuSans-30" x="127.246094"/>
       <use xlink:href="#DejaVuSans-30" x="190.869141"/>
       <use xlink:href="#DejaVuSans-30" x="254.492188"/>
       <use xlink:href="#DejaVuSans-30" x="318.115234"/>
      </g>
     </g>
    </g>
    <g id="ytick_13">
     <g id="line2d_35">
      <g>
       <use xlink:href="#m0c41e72d05" x="496.068323" y="176.437328" style="stroke: #000000; stroke-width: 0.8"/>
      </g>
     </g>
     <g id="text_34">
      <!-- 125000 -->
      <g transform="translate(450.893323 180.236547) scale(0.1 -0.1)">
       <use xlink:href="#DejaVuSans-31"/>
       <use xlink:href="#DejaVuSans-32" x="63.623047"/>
       <use xlink:href="#DejaVuSans-35" x="127.246094"/>
       <use xlink:href="#DejaVuSans-30" x="190.869141"/>
       <use xlink:href="#DejaVuSans-30" x="254.492188"/>
       <use xlink:href="#DejaVuSans-30" x="318.115234"/>
      </g>
     </g>
    </g>
    <g id="ytick_14">
     <g id="line2d_36">
      <g>
       <use xlink:href="#m0c41e72d05" x="496.068323" y="142.862438" style="stroke: #000000; stroke-width: 0.8"/>
      </g>
     </g>
     <g id="text_35">
      <!-- 150000 -->
      <g transform="translate(450.893323 146.661657) scale(0.1 -0.1)">
       <use xlink:href="#DejaVuSans-31"/>
       <use xlink:href="#DejaVuSans-35" x="63.623047"/>
       <use xlink:href="#DejaVuSans-30" x="127.246094"/>
       <use xlink:href="#DejaVuSans-30" x="190.869141"/>
       <use xlink:href="#DejaVuSans-30" x="254.492188"/>
       <use xlink:href="#DejaVuSans-30" x="318.115234"/>
      </g>
     </g>
    </g>
    <g id="ytick_15">
     <g id="line2d_37">
      <g>
       <use xlink:href="#m0c41e72d05" x="496.068323" y="109.287548" style="stroke: #000000; stroke-width: 0.8"/>
      </g>
     </g>
     <g id="text_36">
      <!-- 175000 -->
      <g transform="translate(450.893323 113.086767) scale(0.1 -0.1)">
       <use xlink:href="#DejaVuSans-31"/>
       <use xlink:href="#DejaVuSans-37" x="63.623047"/>
       <use xlink:href="#DejaVuSans-35" x="127.246094"/>
       <use xlink:href="#DejaVuSans-30" x="190.869141"/>
       <use xlink:href="#DejaVuSans-30" x="254.492188"/>
       <use xlink:href="#DejaVuSans-30" x="318.115234"/>
      </g>
     </g>
    </g>
    <g id="ytick_16">
     <g id="line2d_38">
      <g>
       <use xlink:href="#m0c41e72d05" x="496.068323" y="75.712658" style="stroke: #000000; stroke-width: 0.8"/>
      </g>
     </g>
     <g id="text_37">
      <!-- 200000 -->
      <g transform="translate(450.893323 79.511877) scale(0.1 -0.1)">
       <use xlink:href="#DejaVuSans-32"/>
       <use xlink:href="#DejaVuSans-30" x="63.623047"/>
       <use xlink:href="#DejaVuSans-30" x="127.246094"/>
       <use xlink:href="#DejaVuSans-30" x="190.869141"/>
       <use xlink:href="#DejaVuSans-30" x="254.492188"/>
       <use xlink:href="#DejaVuSans-30" x="318.115234"/>
      </g>
     </g>
    </g>
    <g id="ytick_17">
     <g id="line2d_39">
      <g>
       <use xlink:href="#m0c41e72d05" x="496.068323" y="42.137768" style="stroke: #000000; stroke-width: 0.8"/>
      </g>
     </g>
     <g id="text_38">
      <!-- 225000 -->
      <g transform="translate(450.893323 45.936987) scale(0.1 -0.1)">
       <use xlink:href="#DejaVuSans-32"/>
       <use xlink:href="#DejaVuSans-32" x="63.623047"/>
       <use xlink:href="#DejaVuSans-35" x="127.246094"/>
       <use xlink:href="#DejaVuSans-30" x="190.869141"/>
       <use xlink:href="#DejaVuSans-30" x="254.492188"/>
       <use xlink:href="#DejaVuSans-30" x="318.115234"/>
      </g>
     </g>
    </g>
    <g id="text_39">
     <!-- Salary -->
     <g transform="translate(444.813635 188.16625) rotate(-90) scale(0.1 -0.1)">
      <use xlink:href="#DejaVuSans-53"/>
      <use xlink:href="#DejaVuSans-61" x="63.476562"/>
      <use xlink:href="#DejaVuSans-6c" x="124.755859"/>
      <use xlink:href="#DejaVuSans-61" x="152.539062"/>
      <use xlink:href="#DejaVuSans-72" x="213.818359"/>
      <use xlink:href="#DejaVuSans-79" x="254.931641"/>
     </g>
    </g>
   </g>
   <g id="line2d_40">
    <path d="M 512.274156 287.47419 
L 521.806999 277.050346 
L 526.57342 295.628188 
L 531.339841 269.566264 
L 540.872684 253.284952 
L 550.405527 238.932516 
L 559.93837 217.113659 
L 569.471213 205.405651 
L 579.004056 191.641381 
L 588.536898 184.564735 
L 598.069741 170.446812 
L 607.602584 170.372441 
L 617.135427 159.860497 
L 626.66827 143.03848 
L 636.201113 142.787147 
L 645.733956 133.355671 
L 655.266798 125.029645 
L 664.799641 118.258831 
L 674.332484 109.851439 
L 683.865327 104.24554 
L 693.39817 107.705589 
L 702.931013 112.735466 
L 712.463856 105.018876 
L 721.996698 99.655472 
L 731.529541 90.965358 
L 741.062384 75.254025 
L 750.595227 94.924042 
L 760.12807 91.276097 
L 769.660913 92.227811 
L 779.193756 90.730803 
L 788.726598 86.570778 
L 798.259441 95.198853 
L 807.792284 84.111753 
L 817.325127 82.065027 
" clip-path="url(#p7257b0fcd7)" style="fill: none; stroke: #0000ff; stroke-width: 1.5; stroke-linecap: square"/>
   </g>
   <g id="line2d_41">
    <path d="M 512.274156 297.643257 
L 517.040577 297.306932 
L 521.806999 290.987953 
L 526.57342 287.234465 
L 531.339841 273.060983 
L 540.872684 258.038847 
L 550.405527 239.98879 
L 559.93837 221.946467 
L 569.471213 193.991995 
L 579.004056 202.554564 
L 588.536898 197.806586 
L 598.069741 175.899949 
L 607.602584 185.192113 
L 617.135427 147.908391 
L 626.66827 158.018581 
L 636.201113 159.041059 
L 645.733956 139.480207 
L 655.266798 151.847817 
L 664.799641 111.832037 
L 674.332484 122.717504 
L 683.865327 125.303778 
L 693.39817 115.088522 
L 702.931013 105.09109 
L 712.463856 108.840062 
L 721.996698 120.131994 
L 731.529541 106.9828 
L 741.062384 93.063266 
L 750.595227 109.398793 
L 769.660913 101.28598 
L 779.193756 93.221292 
L 788.726598 84.874127 
L 798.259441 126.026645 
L 807.792284 82.983636 
L 817.325127 87.277865 
L 826.85797 93.976503 
L 836.390813 90.954315 
" clip-path="url(#p7257b0fcd7)" style="fill: none; stroke: #ff0000; stroke-width: 1.5; stroke-linecap: square"/>
   </g>
   <g id="line2d_42">
    <path d="M 531.339841 255.751962 
L 588.536898 204.469675 
L 645.733956 127.561689 
L 788.726598 131.299246 
L 807.792284 121.228122 
" clip-path="url(#p7257b0fcd7)" style="fill: none; stroke: #008000; stroke-width: 1.5; stroke-linecap: square"/>
   </g>
   <g id="line2d_43"/>
   <g id="line2d_44"/>
   <g id="line2d_45"/>
   <g id="patch_9">
    <path d="M 496.068323 318.04 
L 496.068323 26.88 
" style="fill: none; stroke: #000000; stroke-width: 0.8; stroke-linejoin: miter; stroke-linecap: square"/>
   </g>
   <g id="patch_10">
    <path d="M 852.596646 318.04 
L 852.596646 26.88 
" style="fill: none; stroke: #000000; stroke-width: 0.8; stroke-linejoin: miter; stroke-linecap: square"/>
   </g>
   <g id="patch_11">
    <path d="M 496.068323 318.04 
L 852.596646 318.04 
" style="fill: none; stroke: #000000; stroke-width: 0.8; stroke-linejoin: miter; stroke-linecap: square"/>
   </g>
   <g id="patch_12">
    <path d="M 496.068323 26.88 
L 852.596646 26.88 
" style="fill: none; stroke: #000000; stroke-width: 0.8; stroke-linejoin: miter; stroke-linecap: square"/>
   </g>
   <g id="text_40">
    <!-- Years of Experience vs. Salary -->
    <g transform="translate(584.197484 20.88) scale(0.12 -0.12)">
     <use xlink:href="#DejaVuSans-59"/>
     <use xlink:href="#DejaVuSans-65" x="47.833984"/>
     <use xlink:href="#DejaVuSans-61" x="109.357422"/>
     <use xlink:href="#DejaVuSans-72" x="170.636719"/>
     <use xlink:href="#DejaVuSans-73" x="211.75"/>
     <use xlink:href="#DejaVuSans-20" x="263.849609"/>
     <use xlink:href="#DejaVuSans-6f" x="295.636719"/>
     <use xlink:href="#DejaVuSans-66" x="356.818359"/>
     <use xlink:href="#DejaVuSans-20" x="392.023438"/>
     <use xlink:href="#DejaVuSans-45" x="423.810547"/>
     <use xlink:href="#DejaVuSans-78" x="486.994141"/>
     <use xlink:href="#DejaVuSans-70" x="546.173828"/>
     <use xlink:href="#DejaVuSans-65" x="609.650391"/>
     <use xlink:href="#DejaVuSans-72" x="671.173828"/>
     <use xlink:href="#DejaVuSans-69" x="712.287109"/>
     <use xlink:href="#DejaVuSans-65" x="740.070312"/>
     <use xlink:href="#DejaVuSans-6e" x="801.59375"/>
     <use xlink:href="#DejaVuSans-63" x="864.972656"/>
     <use xlink:href="#DejaVuSans-65" x="919.953125"/>
     <use xlink:href="#DejaVuSans-20" x="981.476562"/>
     <use xlink:href="#DejaVuSans-76" x="1013.263672"/>
     <use xlink:href="#DejaVuSans-73" x="1072.443359"/>
     <use xlink:href="#DejaVuSans-2e" x="1124.542969"/>
     <use xlink:href="#DejaVuSans-20" x="1156.330078"/>
     <use xlink:href="#DejaVuSans-53" x="1188.117188"/>
     <use xlink:href="#DejaVuSans-61" x="1251.59375"/>
     <use xlink:href="#DejaVuSans-6c" x="1312.873047"/>
     <use xlink:href="#DejaVuSans-61" x="1340.65625"/>
     <use xlink:href="#DejaVuSans-72" x="1401.935547"/>
     <use xlink:href="#DejaVuSans-79" x="1443.048828"/>
    </g>
   </g>
   <g id="legend_2">
    <g id="patch_13">
     <path d="M 503.068323 93.5925 
L 571.22301 93.5925 
Q 573.22301 93.5925 573.22301 91.5925 
L 573.22301 33.88 
Q 573.22301 31.88 571.22301 31.88 
L 503.068323 31.88 
Q 501.068323 31.88 501.068323 33.88 
L 501.068323 91.5925 
Q 501.068323 93.5925 503.068323 93.5925 
z
" style="fill: #ffffff; opacity: 0.8; stroke: #cccccc; stroke-linejoin: miter"/>
    </g>
    <g id="text_41">
     <!-- Gender -->
     <g transform="translate(518.719885 43.478437) scale(0.1 -0.1)">
      <use xlink:href="#DejaVuSans-47"/>
      <use xlink:href="#DejaVuSans-65" x="77.490234"/>
      <use xlink:href="#DejaVuSans-6e" x="139.013672"/>
      <use xlink:href="#DejaVuSans-64" x="202.392578"/>
      <use xlink:href="#DejaVuSans-65" x="265.869141"/>
      <use xlink:href="#DejaVuSans-72" x="327.392578"/>
     </g>
    </g>
    <g id="line2d_46">
     <path d="M 505.068323 54.656563 
L 515.068323 54.656563 
L 525.068323 54.656563 
" style="fill: none; stroke: #0000ff; stroke-width: 1.5; stroke-linecap: square"/>
    </g>
    <g id="text_42">
     <!-- Male -->
     <g transform="translate(533.068323 58.156563) scale(0.1 -0.1)">
      <use xlink:href="#DejaVuSans-4d"/>
      <use xlink:href="#DejaVuSans-61" x="86.279297"/>
      <use xlink:href="#DejaVuSans-6c" x="147.558594"/>
      <use xlink:href="#DejaVuSans-65" x="175.341797"/>
     </g>
    </g>
    <g id="line2d_47">
     <path d="M 505.068323 69.334688 
L 515.068323 69.334688 
L 525.068323 69.334688 
" style="fill: none; stroke: #ff0000; stroke-width: 1.5; stroke-linecap: square"/>
    </g>
    <g id="text_43">
     <!-- Female -->
     <g transform="translate(533.068323 72.834688) scale(0.1 -0.1)">
      <use xlink:href="#DejaVuSans-46"/>
      <use xlink:href="#DejaVuSans-65" x="52.019531"/>
      <use xlink:href="#DejaVuSans-6d" x="113.542969"/>
      <use xlink:href="#DejaVuSans-61" x="210.955078"/>
      <use xlink:href="#DejaVuSans-6c" x="272.234375"/>
      <use xlink:href="#DejaVuSans-65" x="300.017578"/>
     </g>
    </g>
    <g id="line2d_48">
     <path d="M 505.068323 84.012812 
L 515.068323 84.012812 
L 525.068323 84.012812 
" style="fill: none; stroke: #008000; stroke-width: 1.5; stroke-linecap: square"/>
    </g>
    <g id="text_44">
     <!-- Other -->
     <g transform="translate(533.068323 87.512812) scale(0.1 -0.1)">
      <use xlink:href="#DejaVuSans-4f"/>
      <use xlink:href="#DejaVuSans-74" x="78.710938"/>
      <use xlink:href="#DejaVuSans-68" x="117.919922"/>
      <use xlink:href="#DejaVuSans-65" x="181.298828"/>
      <use xlink:href="#DejaVuSans-72" x="242.822266"/>
     </g>
    </g>
   </g>
  </g>
 </g>
 <defs>
  <clipPath id="p5e29694bea">
   <rect x="69.77" y="26.88" width="356.528323" height="291.16"/>
  </clipPath>
  <clipPath id="p7257b0fcd7">
   <rect x="496.068323" y="26.88" width="356.528323" height="291.16"/>
  </clipPath>
 </defs>
</svg>
